<svg width="227" height="223" viewBox="0 0 227 223" fill="none" xmlns="http://www.w3.org/2000/svg">
<path d="M104.64 199.992C106.169 200.116 107.457 200.583 108.503 201.394C109.549 202.205 110.318 203.269 110.811 204.584C111.303 205.899 111.483 207.371 111.352 208.999C111.218 210.655 110.796 212.093 110.085 213.311C109.366 214.535 108.429 215.461 107.274 216.087C106.111 216.72 104.794 216.977 103.321 216.858C102.174 216.766 101.158 216.47 100.272 215.971C99.386 215.472 98.68 214.816 98.1542 214.004C97.6283 213.192 97.3358 212.271 97.2765 211.24L99.7825 211.442C99.9137 212.201 100.285 212.894 100.897 213.52C101.502 214.153 102.356 214.515 103.461 214.604C104.437 214.683 105.315 214.497 106.092 214.047C106.862 213.603 107.489 212.937 107.974 212.05C108.451 211.17 108.74 210.113 108.839 208.882C108.941 207.621 108.831 206.508 108.51 205.542C108.182 204.575 107.674 203.803 106.987 203.228C106.292 202.651 105.449 202.323 104.458 202.243C103.807 202.191 103.207 202.256 102.658 202.44C102.108 202.624 101.633 202.913 101.23 203.308C100.828 203.703 100.525 204.192 100.321 204.774L97.8148 204.571C98.0341 203.62 98.4546 202.781 99.0761 202.055C99.69 201.335 100.472 200.785 101.422 200.406C102.364 200.033 103.437 199.895 104.64 199.992Z" fill="#3D3D3D"/>
<path d="M91.1479 197.712C92.5822 198.066 93.7566 198.717 94.671 199.667C95.5785 200.615 96.1844 201.777 96.4887 203.154C96.7861 204.53 96.7325 206.038 96.328 207.679C95.9201 209.334 95.264 210.705 94.3598 211.791C93.4487 212.876 92.3712 213.627 91.1272 214.045C89.8762 214.461 88.5336 214.492 87.0992 214.138C85.6649 213.785 84.494 213.134 83.5865 212.186C82.6721 211.237 82.0671 210.071 81.7714 208.689C81.4688 207.305 81.5214 205.785 81.9294 204.13C82.3339 202.489 82.9908 201.129 83.9002 200.052C84.8027 198.972 85.8794 198.224 87.1303 197.808C88.3744 197.391 89.7136 197.359 91.1479 197.712ZM90.6074 199.905C89.5178 199.637 88.5525 199.695 87.7115 200.08C86.8704 200.465 86.1688 201.071 85.6065 201.898C85.0443 202.725 84.6323 203.67 84.3705 204.732C84.1088 205.794 84.0338 206.825 84.1456 207.825C84.2575 208.826 84.5954 209.696 85.1594 210.434C85.7234 211.173 86.5502 211.677 87.6397 211.945C88.7293 212.214 89.6955 212.152 90.5382 211.76C91.381 211.368 92.0843 210.755 92.6483 209.921C93.2122 209.087 93.6251 208.139 93.8868 207.077C94.1486 206.015 94.2227 204.988 94.1092 203.994C93.9956 203.001 93.656 202.138 93.0903 201.406C92.5246 200.674 91.6969 200.174 90.6074 199.905Z" fill="#3D3D3D"/>
<path d="M76.805 203.962L80.6634 194.906L82.9764 195.892L76.5624 210.946L74.3278 209.994L75.33 207.642L75.134 207.558C74.4554 208.172 73.658 208.558 72.7416 208.716C71.8224 208.88 70.7944 208.72 69.6575 208.236C68.6382 207.801 67.8354 207.212 67.2491 206.468C66.66 205.731 66.3326 204.85 66.2671 203.827C66.1987 202.809 66.4373 201.66 66.983 200.38L71.0585 190.814L73.3715 191.8L69.3628 201.208C68.8589 202.391 68.7735 203.443 69.1065 204.365C69.4367 205.293 70.1376 205.985 71.2092 206.442C71.9475 206.756 72.6757 206.877 73.3936 206.805C74.105 206.73 74.7582 206.456 75.3531 205.984C75.948 205.512 76.432 204.838 76.805 203.962Z" fill="#3D3D3D"/>
<path d="M51.3888 197.916L52.5276 196.115L59.6949 200.648L58.5561 202.448L51.3888 197.916ZM54.3718 204.441L52.2468 203.097L60.5826 189.915C60.9622 189.315 61.1599 188.81 61.1756 188.399C61.1815 187.991 61.0787 187.649 60.8671 187.372C60.6457 187.098 60.3789 186.862 60.0668 186.665C59.8327 186.517 59.633 186.407 59.4677 186.336C59.2987 186.271 59.1634 186.219 59.062 186.18L59.8369 183.998C60.0151 184.035 60.2504 184.108 60.5427 184.218C60.8388 184.321 61.1849 184.498 61.5811 184.748C62.1814 185.128 62.688 185.629 63.1011 186.251C63.5081 186.87 63.7337 187.563 63.7778 188.331C63.8159 189.094 63.5807 189.878 63.072 190.683L54.3718 204.441Z" fill="#3D3D3D"/>
<path d="M52.9546 177.846C53.7308 178.534 54.3056 179.304 54.6792 180.157C55.0481 181.015 55.1713 181.888 55.049 182.776C54.9219 183.669 54.5051 184.515 53.7986 185.312C53.177 186.014 52.5348 186.46 51.8722 186.651C51.2048 186.848 50.5292 186.866 49.8454 186.706C49.1615 186.546 48.4863 186.28 47.8198 185.908C47.1433 185.536 46.4876 185.135 45.8529 184.706C45.0238 184.142 44.3569 183.68 43.852 183.318C43.3371 182.956 42.9191 182.743 42.5981 182.676C42.2719 182.606 41.9745 182.722 41.706 183.025L41.6495 183.089C40.9525 183.875 40.6262 184.677 40.6706 185.495C40.7097 186.308 41.1625 187.098 42.029 187.865C42.9275 188.661 43.8061 189.089 44.665 189.147C45.5238 189.206 46.2547 189.104 46.8577 188.841L48.0787 191.062C47.1004 191.523 46.1618 191.726 45.2628 191.67C44.3538 191.614 43.51 191.388 42.7314 190.993C41.9427 190.598 41.2401 190.127 40.6234 189.581C40.23 189.232 39.8205 188.784 39.395 188.236C38.9594 187.689 38.6295 187.06 38.4054 186.349C38.1759 185.633 38.1584 184.844 38.3528 183.982C38.5472 183.12 39.0753 182.203 39.9372 181.23L47.0865 173.16L48.9684 174.827L47.4989 176.486L47.5946 176.571C47.9577 176.418 48.4223 176.322 48.9885 176.283C49.5546 176.243 50.1791 176.336 50.8619 176.562C51.5447 176.787 52.2422 177.215 52.9546 177.846ZM51.1699 179.283C50.4256 178.623 49.6688 178.214 48.8994 178.054C48.1247 177.89 47.4022 177.923 46.732 178.155C46.0565 178.382 45.4926 178.751 45.0405 179.261L43.5146 180.983C43.6791 180.958 43.9322 181.026 44.274 181.187C44.6057 181.348 44.9729 181.554 45.3756 181.807C45.7682 182.06 46.1482 182.311 46.5155 182.56C46.8727 182.81 47.1641 183.012 47.3897 183.164C47.9353 183.533 48.4843 183.835 49.0368 184.068C49.5792 184.302 50.1055 184.393 50.6156 184.342C51.1157 184.292 51.5776 184.028 52.0015 183.549C52.5808 182.895 52.7769 182.187 52.5898 181.423C52.3928 180.66 51.9194 179.947 51.1699 179.283Z" fill="#3D3D3D"/>
<path d="M41.4058 165.857C42.376 167.045 42.9309 168.298 43.0705 169.614C43.2101 170.93 42.9761 172.222 42.3687 173.488C41.7612 174.754 40.8248 175.904 39.5595 176.937C38.2722 177.988 36.943 178.679 35.5719 179.01C34.1909 179.34 32.8744 179.305 31.6225 178.906C30.3606 178.506 29.2626 177.734 28.3283 176.589C27.6006 175.698 27.1098 174.76 26.856 173.776C26.6021 172.791 26.5859 171.828 26.8072 170.886C27.0286 169.944 27.4904 169.095 28.1928 168.338L29.7829 170.286C29.3265 170.906 29.0844 171.654 29.0565 172.529C29.0186 173.403 29.3501 174.27 30.0508 175.128C30.6707 175.887 31.4122 176.391 32.2755 176.64C33.1287 176.888 34.0432 176.879 35.0189 176.614C35.9846 176.348 36.9461 175.825 37.9034 175.043C38.8826 174.244 39.6096 173.393 40.0843 172.492C40.5544 171.586 40.759 170.685 40.6979 169.791C40.6324 168.891 40.2852 168.056 39.6563 167.285C39.2431 166.779 38.78 166.392 38.2671 166.123C37.7541 165.854 37.2158 165.711 36.6522 165.695C36.0885 165.678 35.5262 165.798 34.9653 166.054L33.3752 164.107C34.2132 163.606 35.1095 163.328 36.064 163.273C37.0085 163.217 37.9465 163.4 38.8781 163.822C39.7996 164.243 40.6422 164.922 41.4058 165.857Z" fill="#3D3D3D"/>
<path d="M17.0022 159.028L18.8474 157.963L23.0875 165.307L21.2423 166.372L17.0022 159.028ZM16.6113 166.192L15.3542 164.015L28.8612 156.217C29.4763 155.861 29.8861 155.506 30.0906 155.15C30.2855 154.791 30.3535 154.441 30.2947 154.097C30.2263 153.751 30.0997 153.418 29.915 153.099C29.7765 152.859 29.6506 152.669 29.5372 152.529C29.4177 152.393 29.322 152.285 29.2503 152.203L30.9506 150.631C31.0912 150.747 31.2655 150.921 31.4735 151.153C31.6877 151.382 31.912 151.7 32.1464 152.106C32.5015 152.721 32.7173 153.4 32.7937 154.143C32.8666 154.88 32.7443 155.598 32.4267 156.298C32.1056 156.992 31.533 157.577 30.7088 158.053L16.6113 166.192Z" fill="#3D3D3D"/>
<path d="M13.6933 129.54L9.06648 130.311L12.3226 133.691L10.7736 135.051L7.80885 131.394L6.51481 135.92L4.55663 135.276L6.22731 130.89L1.66864 131.995L1.2595 129.991L5.88636 129.22L2.63025 125.84L4.17928 124.48L7.14399 128.137L8.43803 123.611L10.3962 124.255L8.72553 128.641L13.2842 127.536L13.6933 129.54Z" fill="#3D3D3D"/>
<path d="M22.2202 96.6059C22.0353 98.1288 21.5165 99.3966 20.6638 100.409C19.8111 101.422 18.7178 102.147 17.3839 102.586C16.0499 103.025 14.5721 103.147 12.9505 102.95C11.3007 102.749 9.88158 102.269 8.69317 101.51C7.49856 100.742 6.61155 99.7689 6.03214 98.5896C5.44654 97.4024 5.24278 96.0755 5.42084 94.609C5.55953 93.4669 5.89603 92.4632 6.43035 91.598C6.96467 90.7328 7.64808 90.0538 8.48059 89.5611C9.3131 89.0683 10.2456 88.8131 11.2779 88.7954L10.9749 91.2913C10.2115 91.3917 9.50441 91.7351 8.85371 92.3215C8.19681 92.8999 7.80158 93.7391 7.66803 94.839C7.54989 95.8119 7.70012 96.6959 8.11873 97.4908C8.53114 98.2777 9.17079 98.9313 10.0377 99.4516C10.8984 99.9639 11.9422 100.295 13.169 100.443C14.4239 100.596 15.5407 100.531 16.5193 100.249C17.4988 99.9604 18.29 99.4841 18.8928 98.8204C19.4966 98.1497 19.8583 97.3208 19.9782 96.3337C20.0569 95.6851 20.0156 95.0826 19.8542 94.5265C19.6928 93.9703 19.4228 93.4832 19.0443 93.0652C18.6658 92.6472 18.1899 92.3247 17.6164 92.0977L17.9195 89.6018C18.8612 89.8592 19.6826 90.3131 20.3834 90.9634C21.0781 91.6058 21.5958 92.4092 21.9366 93.3735C22.2712 94.3299 22.3658 95.4074 22.2202 96.6059Z" fill="#3D3D3D"/>
<path d="M25.0415 83.2165C24.6305 84.6354 23.9322 85.7826 22.9466 86.658C21.963 87.5266 20.7771 88.0852 19.3889 88.3338C18.0027 88.5756 16.4978 88.4613 14.8742 87.9911C13.2369 87.5168 11.8937 86.8061 10.8445 85.8589C9.79729 84.9049 9.09012 83.7979 8.72301 82.5381C8.35787 81.2715 8.38081 79.9287 8.79181 78.5097C9.20281 77.0908 9.90012 75.947 10.8837 75.0784C11.8693 74.203 13.0586 73.6454 14.4517 73.4056C15.8467 73.159 17.3628 73.2728 19 73.747C20.6236 74.2173 21.9556 74.9285 22.996 75.8805C24.0384 76.8257 24.7422 77.9317 25.1073 79.1983C25.4744 80.4582 25.4525 81.7975 25.0415 83.2165ZM22.8721 82.5881C23.1843 81.5103 23.1649 80.5434 22.8139 79.6875C22.4629 78.8316 21.8855 78.1061 21.0819 77.511C20.2782 76.9159 19.3511 76.4662 18.3005 76.1619C17.25 75.8576 16.2226 75.7412 15.2185 75.8127C14.2144 75.8842 13.3318 76.1868 12.5709 76.7206C11.8099 77.2544 11.2734 78.0602 10.9612 79.1381C10.649 80.2159 10.6718 81.1838 11.0296 82.0416C11.3875 82.8995 11.9716 83.627 12.7821 84.2241C13.5926 84.8211 14.5231 85.2718 15.5737 85.5761C16.6243 85.8804 17.6482 85.9958 18.6455 85.9224C19.6428 85.849 20.5185 85.5444 21.2726 85.0086C22.0268 84.4728 22.5599 83.666 22.8721 82.5881Z" fill="#3D3D3D"/>
<path d="M19.3741 68.6335L28.2674 72.8535L27.1896 75.1249L12.4059 68.11L13.4471 65.9155L15.7571 67.0116L15.8484 66.8191C15.2621 66.1164 14.9086 65.304 14.788 64.382C14.6609 63.457 14.8622 62.4362 15.392 61.3198C15.867 60.3188 16.4879 59.5403 17.2548 58.9845C18.0153 58.4255 18.9083 58.1339 19.934 58.1096C20.9532 58.0823 22.0916 58.367 23.3493 58.9637L32.7431 63.4212L31.6653 65.6926L22.4255 61.3083C21.2641 60.7572 20.2162 60.6294 19.282 60.9251C18.3413 61.2177 17.6213 61.8901 17.1219 62.9425C16.7779 63.6675 16.6276 64.3902 16.671 65.1105C16.7175 65.8243 16.9647 66.4879 17.4125 67.1014C17.8604 67.7148 18.5143 68.2256 19.3741 68.6335Z" fill="#3D3D3D"/>
<path d="M26.4389 43.4814L28.1924 44.6918L23.3752 51.6708L21.6216 50.4604L26.4389 43.4814ZM19.7992 46.1992L21.2274 44.1301L34.0632 52.99C34.6477 53.3934 35.1445 53.6113 35.5538 53.6435C35.9612 53.6658 36.3074 53.5769 36.5924 53.3766C36.8755 53.1664 37.122 52.9093 37.3318 52.6054C37.4892 52.3774 37.6066 52.1823 37.6841 52.0201C37.7557 51.8538 37.813 51.7207 37.856 51.621L40.0052 52.4831C39.961 52.6597 39.8784 52.8918 39.7576 53.1795C39.6425 53.4711 39.4519 53.8099 39.1856 54.1956C38.7821 54.7801 38.2611 55.2662 37.6224 55.6539C36.9878 56.0357 36.2862 56.2332 35.5177 56.2464C34.7532 56.2537 33.9793 55.9871 33.1961 55.4464L19.7992 46.1992Z" fill="#3D3D3D"/>
<path d="M46.4292 45.8541C45.7108 46.6019 44.9181 47.1453 44.0509 47.4843C43.1786 47.8183 42.3013 47.9063 41.4191 47.7482C40.5318 47.5853 39.7039 47.1348 38.9356 46.3968C38.2595 45.7474 37.8393 45.0878 37.6751 44.418C37.5058 43.7433 37.5148 43.0675 37.7021 42.3906C37.8894 41.7138 38.1824 41.0498 38.5812 40.3989C38.9798 39.7378 39.4064 39.0988 39.8612 38.4819C40.4578 37.6762 40.947 37.0284 41.329 36.5385C41.7107 36.0386 41.941 35.6296 42.02 35.3115C42.1039 34.9884 41.9999 34.6866 41.7079 34.4061L41.6465 34.3471C40.8884 33.6189 40.1001 33.2606 39.2816 33.2721C38.4679 33.2784 37.6602 33.699 36.8582 34.534C36.0268 35.3996 35.5644 36.2603 35.4711 37.1161C35.3778 37.9719 35.4504 38.7064 35.6888 39.3194L33.421 40.45C32.9991 39.4539 32.8344 38.5079 32.9269 37.6119C33.0191 36.7059 33.2786 35.8719 33.7053 35.1098C34.1318 34.3377 34.6303 33.6546 35.2011 33.0604C35.5651 32.6814 36.0294 32.2903 36.5939 31.8871C37.1582 31.4739 37.8001 31.1696 38.5195 30.9743C39.2438 30.7738 40.0327 30.7881 40.8862 31.017C41.7397 31.246 42.6352 31.8106 43.5725 32.711L51.348 40.1794L49.6063 41.9926L48.0082 40.4576L47.9197 40.5498C48.0577 40.9188 48.1349 41.3869 48.1514 41.9541C48.1678 42.5214 48.0497 43.1416 47.7971 43.8148C47.5444 44.488 47.0884 45.1677 46.4292 45.8541ZM45.066 44.013C45.7548 43.2959 46.1945 42.5561 46.385 41.7938C46.5806 41.0264 46.576 40.3031 46.3715 39.6241C46.1719 38.94 45.8262 38.3617 45.3344 37.8894L43.6749 36.2954C43.6933 36.4608 43.6154 36.711 43.4413 37.046C43.267 37.371 43.0457 37.7296 42.7773 38.1218C42.5088 38.5039 42.2425 38.8734 41.9784 39.2304C41.7141 39.5773 41.5013 39.8603 41.34 40.0796C40.9488 40.6099 40.6256 41.1463 40.3703 41.6889C40.1148 42.2215 40.0023 42.7436 40.0327 43.2554C40.0629 43.7571 40.3085 44.2293 40.7694 44.6721C41.3995 45.2773 42.0997 45.5018 42.8701 45.3456C43.6403 45.1794 44.3723 44.7352 45.066 44.013Z" fill="#3D3D3D"/>
<path d="M58.8739 34.7974C57.6475 35.719 56.3738 36.223 55.0529 36.3095C53.732 36.3959 52.4512 36.1102 51.2105 35.4522C49.9698 34.7943 48.8588 33.8124 47.8775 32.5065C46.8791 31.1779 46.2422 29.8219 45.9668 28.4386C45.6927 27.0454 45.7803 25.7314 46.2294 24.4966C46.68 23.2519 47.4958 22.1858 48.6767 21.2983C49.5966 20.6071 50.5535 20.1546 51.5476 19.9406C52.5418 19.7266 53.5049 19.7491 54.4369 20.0082C55.369 20.2673 56.199 20.763 56.9269 21.4952L54.917 23.0056C54.3157 22.5246 53.5782 22.2526 52.7046 22.1895C51.8323 22.1164 50.9534 22.4127 50.0676 23.0783C49.2841 23.6671 48.7506 24.3878 48.4673 25.2403C48.1854 26.0829 48.1572 26.997 48.3825 27.9826C48.6093 28.9582 49.0939 29.94 49.8363 30.928C50.5957 31.9386 51.416 32.6992 52.2972 33.2098C53.184 33.716 54.0756 33.9567 54.9719 33.9317C55.8738 33.9025 56.7223 33.5892 57.5172 32.9918C58.0395 32.5993 58.4453 32.1522 58.7347 31.6505C59.024 31.1488 59.1882 30.6167 59.2275 30.0542C59.2667 29.4916 59.1696 28.925 58.9361 28.3542L60.9461 26.8438C61.4128 27.7013 61.6544 28.608 61.6709 29.564C61.6889 30.51 61.4681 31.4399 61.0087 32.3537C60.5508 33.2575 59.8392 34.0721 58.8739 34.7974Z" fill="#3D3D3D"/>
<path d="M66.6795 10.6886L67.6697 12.5752L60.1609 16.5161L59.1708 14.6295L66.6795 10.6886ZM59.5373 10.0095L61.7635 8.84107L69.0116 22.6512C69.3417 23.28 69.6804 23.7038 70.0278 23.9226C70.3782 24.1317 70.7261 24.2138 71.0715 24.1689C71.4199 24.1144 71.7576 24.0013 72.0846 23.8297C72.3299 23.7009 72.5245 23.5828 72.6685 23.4751C72.8092 23.3611 72.9218 23.27 73.0062 23.2016L74.5086 24.9638C74.3874 25.0996 74.2064 25.2667 73.9657 25.4653C73.7283 25.6701 73.4021 25.8814 72.987 26.0992C72.3581 26.4293 71.6709 26.6176 70.9252 26.664C70.1859 26.7071 69.4729 26.556 68.7862 26.2105C68.1059 25.8617 67.5446 25.266 67.1023 24.4233L59.5373 10.0095Z" fill="#3D3D3D"/>
<path d="M128.841 18.4159C127.327 18.1698 126.081 17.6004 125.104 16.7076C124.126 15.8148 123.445 14.6931 123.06 13.3426C122.675 11.9921 122.614 10.5106 122.876 8.89823C123.143 7.25782 123.679 5.85918 124.486 4.70231C125.301 3.53958 126.309 2.69248 127.511 2.16103C128.721 1.62371 130.055 1.47353 131.513 1.71051C132.649 1.89507 133.638 2.27171 134.481 2.84044C135.324 3.40916 135.975 4.11936 136.434 4.97104C136.893 5.82271 137.11 6.76468 137.086 7.79695L134.604 7.39364C134.535 6.6268 134.22 5.90648 133.661 5.2327C133.109 4.55304 132.286 4.12434 131.193 3.94662C130.225 3.78939 129.336 3.90391 128.525 4.29017C127.722 4.67055 127.043 5.28338 126.489 6.12864C125.942 6.96803 125.57 7.99762 125.371 9.21741C125.169 10.4652 125.188 11.5837 125.43 12.5729C125.68 13.5632 126.124 14.3729 126.763 15.002C127.408 15.6322 128.222 16.0271 129.204 16.1866C129.849 16.2914 130.452 16.2744 131.014 16.1355C131.577 15.9966 132.074 15.7465 132.507 15.3851C132.94 15.0237 133.281 14.5611 133.531 13.9973L136.013 14.4007C135.718 15.3313 135.231 16.1336 134.553 16.8078C133.883 17.476 133.06 17.961 132.083 18.2627C131.113 18.5585 130.033 18.6096 128.841 18.4159Z" fill="#3D3D3D"/>
<path d="M142.106 21.774C140.705 21.3062 139.587 20.5622 138.752 19.5422C137.924 18.5244 137.413 17.317 137.221 15.9199C137.035 14.5251 137.21 13.026 137.745 11.4227C138.285 9.80584 139.049 8.49232 140.038 7.4821C141.033 6.47414 142.168 5.81212 143.441 5.49603C144.722 5.18219 146.062 5.25918 147.464 5.72698C148.865 6.19479 149.98 6.93759 150.808 7.95538C151.643 8.97542 152.152 10.1862 152.336 11.5878C152.526 12.9916 152.351 14.5019 151.811 16.1187C151.276 17.7221 150.512 19.0243 149.519 20.0256C148.532 21.029 147.399 21.6877 146.119 22.0015C144.845 22.3176 143.508 22.2418 142.106 21.774ZM142.822 19.6317C143.886 19.987 144.853 20.0066 145.722 19.6903C146.591 19.374 147.34 18.8263 147.967 18.0473C148.594 17.2683 149.08 16.36 149.427 15.3225C149.773 14.2851 149.931 13.2632 149.9 12.2571C149.869 11.2509 149.602 10.3569 149.099 9.57503C148.596 8.79321 147.813 8.22463 146.748 7.86927C145.684 7.51392 144.716 7.49775 143.844 7.82076C142.973 8.14377 142.222 8.69817 141.593 9.48396C140.964 10.2697 140.476 11.1814 140.13 12.2188C139.783 13.2563 139.627 14.2747 139.66 15.2742C139.693 16.2737 139.962 17.1609 140.467 17.936C140.972 18.7111 141.757 19.2763 142.822 19.6317Z" fill="#3D3D3D"/>
<path d="M156.906 16.6983L152.331 25.4145L150.105 24.2461L157.709 9.75685L159.86 10.8857L158.672 13.1496L158.861 13.2486C159.586 12.6911 160.412 12.3706 161.338 12.2871C162.268 12.1974 163.28 12.4397 164.374 13.014C165.355 13.5289 166.108 14.1807 166.632 14.9693C167.16 15.7517 167.415 16.6558 167.398 17.6815C167.385 18.701 167.054 19.8271 166.408 21.0597L161.575 30.2664L159.349 29.098L164.102 20.0422C164.7 18.9039 164.869 17.8621 164.612 16.9167C164.357 15.965 163.714 15.2185 162.683 14.6772C161.972 14.3042 161.256 14.1249 160.535 14.1393C159.82 14.157 159.147 14.3773 158.516 14.8001C157.885 15.2229 157.348 15.8556 156.906 16.6983Z" fill="#3D3D3D"/>
<path d="M181.753 24.7702L180.473 26.4736L173.694 21.3792L174.974 19.6758L181.753 24.7702ZM179.305 18.0265L181.315 19.5368L171.945 32.0054C171.518 32.5732 171.281 33.0609 171.232 33.4685C171.193 33.8748 171.268 34.2243 171.457 34.517C171.656 34.8084 171.902 35.065 172.198 35.2869C172.419 35.4533 172.609 35.5785 172.768 35.6624C172.932 35.7407 173.062 35.8033 173.16 35.8503L172.212 37.9631C172.038 37.9118 171.809 37.8199 171.526 37.6876C171.24 37.5609 170.909 37.3567 170.534 37.0751C169.966 36.6485 169.502 36.1083 169.14 35.4545C168.784 34.805 168.615 34.0961 168.633 33.3276C168.656 32.5635 168.954 31.8009 169.525 31.0401L179.305 18.0265Z" fill="#3D3D3D"/>
<path d="M178.577 44.6487C177.859 43.9009 177.348 43.0869 177.044 42.2068C176.746 41.3217 176.693 40.4416 176.886 39.5665C177.085 38.6864 177.568 37.8774 178.337 37.1394C179.013 36.49 179.689 36.0967 180.365 35.9596C181.046 35.8176 181.72 35.8538 182.389 36.0682C183.058 36.2826 183.71 36.6021 184.344 37.0268C184.988 37.4517 185.61 37.9037 186.208 38.3829C186.989 39.0115 187.616 39.5264 188.091 39.9277C188.575 40.3293 188.974 40.5759 189.289 40.6677C189.608 40.7645 189.914 40.6727 190.206 40.3923L190.267 40.3333C191.026 39.6051 191.415 38.8319 191.437 38.0135C191.463 37.2003 191.076 36.3763 190.274 35.5414C189.442 34.6757 188.601 34.1791 187.749 34.0514C186.898 33.9237 186.161 33.9667 185.539 34.1802L184.501 31.8687C185.513 31.4873 186.465 31.3608 187.356 31.4893C188.258 31.6179 189.081 31.9108 189.825 32.3678C190.579 32.825 191.242 33.3507 191.813 33.9449C192.177 34.3239 192.549 34.8036 192.929 35.3839C193.319 35.9644 193.597 36.6179 193.763 37.3446C193.935 38.0764 193.889 38.8641 193.625 39.7077C193.362 40.5513 192.762 41.4233 191.825 42.3236L184.049 49.7921L182.308 47.9788L183.906 46.4438L183.817 46.3516C183.443 46.4747 182.972 46.533 182.405 46.5266C181.837 46.5202 181.222 46.3772 180.56 46.0976C179.897 45.8181 179.236 45.3351 178.577 44.6487ZM180.472 43.3608C181.161 44.0779 181.882 44.547 182.636 44.7681C183.395 44.9944 184.118 45.019 184.804 44.842C185.496 44.67 186.088 44.3479 186.579 43.8756L188.239 42.2815C188.073 42.2933 187.826 42.2054 187.498 42.018C187.181 41.8308 186.831 41.5952 186.45 41.3112C186.079 41.0275 185.721 40.7465 185.375 40.4683C185.039 40.1903 184.765 39.9662 184.552 39.7962C184.038 39.384 183.515 39.0394 182.983 38.7625C182.461 38.4858 181.944 38.3523 181.431 38.362C180.929 38.372 180.447 38.5984 179.986 39.0412C179.356 39.6463 179.104 40.337 179.229 41.113C179.364 41.8893 179.778 42.6386 180.472 43.3608Z" fill="#3D3D3D"/>
<path d="M189.124 57.5286C188.252 56.2661 187.8 54.9732 187.767 53.6498C187.734 52.3265 188.071 51.0582 188.778 49.845C189.485 48.6319 190.511 47.5613 191.856 46.6334C193.223 45.6893 194.604 45.1075 195.997 44.888C197.4 44.6703 198.71 44.8107 199.925 45.3092C201.151 45.8095 202.183 46.6675 203.023 47.8833C203.676 48.8302 204.09 49.8046 204.264 50.8065C204.437 51.8084 204.376 52.7698 204.08 53.6907C203.783 54.6116 203.255 55.421 202.494 56.1188L201.065 54.0497C201.57 53.4682 201.872 52.7423 201.97 51.8719C202.078 51.0034 201.817 50.1132 201.188 49.2013C200.631 48.3947 199.933 47.8327 199.092 47.5153C198.262 47.1997 197.349 47.1347 196.356 47.3201C195.372 47.5074 194.371 47.9521 193.354 48.6541C192.314 49.3722 191.521 50.1613 190.975 51.0211C190.433 51.8869 190.157 52.768 190.146 53.6646C190.139 54.567 190.418 55.4273 190.983 56.2456C191.354 56.7834 191.784 57.2069 192.274 57.5162C192.763 57.8255 193.288 58.011 193.849 58.0729C194.409 58.1348 194.98 58.0605 195.559 57.8502L196.988 59.9194C196.112 60.3512 195.196 60.5561 194.24 60.5341C193.294 60.5139 192.374 60.2559 191.48 59.7601C190.595 59.2661 189.81 58.5223 189.124 57.5286Z" fill="#3D3D3D"/>
<path d="M212.899 66.2987L210.974 67.2121L207.338 59.5507L209.263 58.6373L212.899 66.2987ZM213.865 59.1896L214.943 61.4611L200.852 68.1472C200.21 68.4517 199.773 68.7731 199.541 69.1114C199.318 69.4531 199.222 69.7974 199.253 70.1443C199.293 70.4946 199.392 70.8366 199.551 71.1702C199.669 71.4205 199.78 71.6197 199.882 71.7679C199.99 71.9131 200.076 72.0293 200.141 72.1164L198.32 73.5466C198.189 73.42 198.029 73.2324 197.841 72.9839C197.646 72.7385 197.448 72.404 197.247 71.9805C196.942 71.3388 196.782 70.6446 196.765 69.8977C196.752 69.1572 196.932 68.4508 197.305 67.7786C197.681 67.1129 198.298 66.576 199.158 66.168L213.865 59.1896Z" fill="#3D3D3D"/>
<path d="M213.824 95.9575L218.498 95.5617L215.524 91.9306L217.178 90.6996L219.839 94.5833L221.493 90.1757L223.393 90.9752L221.375 95.2124L226.007 94.4782L226.254 96.5087L221.58 96.9045L224.554 100.536L222.9 101.767L220.239 97.8829L218.585 102.291L216.685 101.491L218.703 97.2538L214.071 97.988L213.824 95.9575Z" fill="#3D3D3D"/>
<path d="M202.675 128.099C202.982 126.596 203.601 125.374 204.532 124.433C205.464 123.493 206.612 122.857 207.977 122.527C209.342 122.197 210.824 122.195 212.425 122.522C214.053 122.854 215.429 123.447 216.553 124.299C217.682 125.161 218.487 126.202 218.97 127.424C219.458 128.655 219.555 129.994 219.259 131.441C219.029 132.568 218.613 133.542 218.01 134.361C217.408 135.181 216.672 135.802 215.803 136.226C214.934 136.651 213.984 136.83 212.953 136.765L213.456 134.301C214.225 134.262 214.957 133.977 215.653 133.445C216.355 132.921 216.816 132.117 217.038 131.031C217.234 130.071 217.155 129.178 216.802 128.352C216.454 127.534 215.869 126.831 215.047 126.243C214.23 125.663 213.216 125.249 212.005 125.002C210.767 124.749 209.648 124.724 208.65 124.926C207.651 125.135 206.824 125.546 206.17 126.159C205.514 126.779 205.087 127.576 204.888 128.551C204.757 129.191 204.75 129.795 204.866 130.362C204.982 130.929 205.212 131.437 205.555 131.884C205.899 132.331 206.348 132.691 206.901 132.963L206.398 135.426C205.48 135.094 204.698 134.575 204.052 133.871C203.411 133.175 202.959 132.332 202.697 131.344C202.441 130.363 202.433 129.282 202.675 128.099Z" fill="#3D3D3D"/>
<path d="M198.785 141.218C199.309 139.837 200.097 138.749 201.15 137.956C202.201 137.169 203.428 136.708 204.831 136.572C206.232 136.443 207.723 136.678 209.304 137.277C210.898 137.881 212.179 138.698 213.149 139.726C214.116 140.762 214.732 141.922 214.996 143.207C215.258 144.499 215.127 145.836 214.604 147.217C214.08 148.598 213.293 149.682 212.242 150.469C211.189 151.262 209.959 151.722 208.551 151.849C207.141 151.983 205.639 151.747 204.045 151.143C202.465 150.543 201.194 149.727 200.234 148.695C199.271 147.669 198.658 146.51 198.396 145.218C198.132 143.932 198.261 142.599 198.785 141.218ZM200.897 142.019C200.499 143.068 200.441 144.033 200.722 144.915C201.003 145.796 201.52 146.566 202.273 147.223C203.026 147.881 203.914 148.404 204.937 148.792C205.959 149.18 206.974 149.379 207.981 149.388C208.987 149.398 209.891 149.167 210.693 148.696C211.494 148.225 212.094 147.465 212.492 146.416C212.89 145.367 212.945 144.4 212.657 143.516C212.37 142.633 211.846 141.86 211.086 141.2C210.326 140.54 209.435 140.016 208.412 139.628C207.39 139.24 206.378 139.042 205.378 139.035C204.378 139.028 203.481 139.262 202.686 139.735C201.891 140.208 201.295 140.97 200.897 142.019Z" fill="#3D3D3D"/>
<path d="M203.261 156.21L194.736 151.288L195.993 149.11L210.164 157.292L208.95 159.396L206.736 158.117L206.629 158.302C207.157 159.049 207.444 159.888 207.49 160.816C207.542 161.749 207.259 162.75 206.642 163.82C206.088 164.78 205.406 165.506 204.597 165.998C203.794 166.494 202.88 166.713 201.856 166.654C200.838 166.6 199.726 166.224 198.52 165.528L189.516 160.329L190.773 158.152L199.63 163.266C200.743 163.908 201.777 164.12 202.732 163.9C203.694 163.685 204.465 163.072 205.048 162.063C205.449 161.368 205.657 160.66 205.672 159.939C205.683 159.223 205.49 158.542 205.093 157.895C204.696 157.247 204.085 156.685 203.261 156.21Z" fill="#3D3D3D"/>
<path d="M194.195 180.712L192.545 179.364L197.908 172.795L199.558 174.143L194.195 180.712ZM201.032 178.537L199.442 180.484L187.361 170.62C186.81 170.171 186.333 169.914 185.927 169.849C185.523 169.794 185.171 169.855 184.871 170.032C184.572 170.218 184.305 170.455 184.072 170.741C183.896 170.955 183.764 171.14 183.673 171.296C183.589 171.456 183.521 171.584 183.47 171.68L181.397 170.648C181.455 170.475 181.556 170.25 181.7 169.973C181.838 169.692 182.055 169.37 182.352 169.007C182.801 168.456 183.36 168.014 184.027 167.679C184.691 167.349 185.406 167.209 186.173 167.258C186.935 167.312 187.685 167.64 188.423 168.242L201.032 178.537Z" fill="#3D3D3D"/>
<path d="M174.461 176.738C175.237 176.051 176.071 175.573 176.962 175.305C177.859 175.042 178.74 175.025 179.607 175.253C180.478 175.487 181.267 176.003 181.973 176.8C182.595 177.502 182.961 178.193 183.071 178.874C183.185 179.56 183.122 180.233 182.881 180.893C182.639 181.552 182.294 182.19 181.844 182.807C181.394 183.434 180.917 184.037 180.414 184.615C179.755 185.37 179.215 185.976 178.795 186.434C178.374 186.901 178.111 187.291 178.007 187.601C177.897 187.917 177.977 188.226 178.245 188.529L178.302 188.593C178.999 189.379 179.756 189.8 180.573 189.854C181.384 189.914 182.223 189.559 183.09 188.792C183.988 187.996 184.518 187.175 184.68 186.33C184.842 185.484 184.829 184.746 184.64 184.116L186.992 183.171C187.332 184.198 187.42 185.154 187.256 186.04C187.091 186.936 186.765 187.746 186.279 188.471C185.791 189.207 185.239 189.847 184.623 190.394C184.229 190.742 183.735 191.095 183.14 191.451C182.544 191.818 181.88 192.069 181.147 192.206C180.409 192.348 179.624 192.27 178.792 191.973C177.959 191.676 177.112 191.041 176.25 190.069L169.101 181.999L170.983 180.331L172.452 181.99L172.548 181.905C172.44 181.526 172.401 181.054 172.43 180.487C172.459 179.92 172.627 179.311 172.933 178.661C173.239 178.01 173.748 177.369 174.461 176.738ZM175.671 178.683C174.927 179.342 174.429 180.044 174.178 180.789C173.921 181.538 173.867 182.259 174.017 182.953C174.161 183.651 174.459 184.255 174.911 184.765L176.437 186.487C176.432 186.321 176.529 186.078 176.73 185.758C176.93 185.448 177.179 185.109 177.478 184.739C177.777 184.38 178.072 184.033 178.364 183.698C178.655 183.374 178.89 183.109 179.069 182.903C179.501 182.406 179.866 181.898 180.165 181.377C180.462 180.867 180.616 180.356 180.627 179.843C180.637 179.341 180.431 178.85 180.007 178.372C179.427 177.718 178.748 177.438 177.967 177.531C177.186 177.635 176.421 178.019 175.671 178.683Z" fill="#3D3D3D"/>
<path d="M161.166 186.758C162.463 185.938 163.773 185.538 165.097 185.558C166.42 185.578 167.674 185.966 168.858 186.722C170.041 187.477 171.07 188.545 171.943 189.926C172.831 191.331 173.357 192.733 173.52 194.134C173.681 195.545 173.488 196.848 172.941 198.042C172.392 199.247 171.493 200.244 170.244 201.033C169.272 201.648 168.282 202.022 167.273 202.156C166.265 202.289 165.307 202.189 164.399 201.856C163.491 201.523 162.703 200.962 162.037 200.173L164.162 198.83C164.722 199.357 165.436 199.688 166.301 199.821C167.165 199.964 168.065 199.739 169.001 199.147C169.83 198.623 170.419 197.948 170.77 197.121C171.119 196.304 171.221 195.395 171.075 194.395C170.928 193.404 170.524 192.386 169.863 191.342C169.188 190.273 168.431 189.449 167.594 188.869C166.751 188.293 165.882 187.982 164.986 187.934C164.085 187.891 163.214 188.135 162.373 188.666C161.821 189.016 161.381 189.429 161.052 189.905C160.723 190.382 160.517 190.899 160.432 191.457C160.348 192.015 160.399 192.587 160.586 193.175L158.461 194.519C158.065 193.626 157.897 192.703 157.957 191.749C158.016 190.805 158.31 189.895 158.842 189.022C159.371 188.158 160.146 187.403 161.166 186.758Z" fill="#3D3D3D"/>
<path d="M151.446 210.16L150.611 208.2L158.413 204.876L159.248 206.836L151.446 210.16ZM158.511 211.412L156.198 212.397L150.084 198.049C149.806 197.395 149.502 196.946 149.174 196.7C148.841 196.463 148.501 196.353 148.153 196.37C147.802 196.396 147.456 196.482 147.116 196.627C146.861 196.735 146.658 196.837 146.505 196.933C146.356 197.035 146.237 197.117 146.147 197.179L144.791 195.301C144.923 195.176 145.117 195.024 145.373 194.845C145.626 194.66 145.968 194.476 146.399 194.292C147.053 194.014 147.753 193.881 148.5 193.895C149.24 193.911 149.939 194.119 150.595 194.519C151.245 194.921 151.757 195.56 152.13 196.436L158.511 211.412Z" fill="#3D3D3D"/>
<path d="M121.774 209.89L121.981 214.577L125.729 211.752L126.893 213.453L122.905 215.956L127.243 217.786L126.367 219.652L122.215 217.465L122.762 222.123L120.723 222.288L120.516 217.602L116.768 220.427L115.604 218.725L119.592 216.223L115.254 214.393L116.13 212.527L120.282 214.714L119.735 210.055L121.774 209.89Z" fill="#3D3D3D"/>
</svg>
