<svg width="228" height="228" viewBox="0 0 228 228" fill="none" xmlns="http://www.w3.org/2000/svg">
<path d="M114.055 200.097L112.413 222.537L109.99 222.36L110.18 219.768L109.882 219.746C109.677 220.016 109.396 220.358 109.038 220.773C108.672 221.195 108.169 221.557 107.527 221.859C106.878 222.168 106.022 222.283 104.959 222.205C103.585 222.105 102.399 221.673 101.401 220.909C100.403 220.145 99.6563 219.111 99.1607 217.807C98.665 216.504 98.4799 214.994 98.6054 213.28C98.7319 211.552 99.1355 210.075 99.8162 208.85C100.496 207.633 101.383 206.715 102.475 206.097C103.566 205.486 104.792 205.23 106.152 205.33C107.2 205.407 108.027 205.642 108.632 206.035C109.236 206.435 109.692 206.871 110 207.342C110.306 207.82 110.541 208.215 110.703 208.526L110.916 208.541L111.547 199.914L114.055 200.097ZM110.545 214.197C110.635 212.964 110.534 211.864 110.242 210.895C109.949 209.934 109.475 209.162 108.819 208.58C108.164 208.005 107.333 207.681 106.327 207.607C105.279 207.531 104.384 207.743 103.642 208.244C102.893 208.752 102.307 209.464 101.883 210.38C101.453 211.302 101.195 212.345 101.11 213.506C101.026 214.654 101.127 215.701 101.414 216.648C101.693 217.601 102.167 218.373 102.836 218.963C103.497 219.56 104.359 219.897 105.422 219.975C106.442 220.049 107.318 219.854 108.05 219.387C108.781 218.928 109.358 218.251 109.779 217.356C110.2 216.468 110.456 215.415 110.545 214.197Z" fill="#3D3D3D"/>
<path d="M97.1979 204.512L93.6399 220.484L91.2691 219.956L91.8065 217.544L91.6401 217.507C91.1729 218.232 90.5032 218.756 89.631 219.078C88.7588 219.401 87.8443 219.455 86.8877 219.242C86.7074 219.202 86.4829 219.148 86.2141 219.081C85.9453 219.014 85.7431 218.958 85.6075 218.913L86.1635 216.418C86.242 216.457 86.4257 216.531 86.7145 216.639C86.9949 216.752 87.298 216.845 87.6238 216.918C88.4002 217.091 89.1297 217.082 89.8124 216.892C90.4865 216.708 91.0637 216.37 91.5438 215.881C92.0156 215.396 92.3317 214.794 92.4923 214.073L94.7438 203.965L97.1979 204.512Z" fill="#3D3D3D"/>
<path d="M81.2578 199.612C82.6376 200.139 83.7226 200.931 84.5129 201.986C85.2966 203.038 85.7545 204.267 85.8867 205.671C86.0122 207.072 85.773 208.562 85.1692 210.141C84.5603 211.733 83.7402 213.013 82.7089 213.979C81.671 214.943 80.509 215.556 79.223 215.817C77.9303 216.075 76.5941 215.941 75.2143 215.413C73.8345 214.885 72.7528 214.095 71.9691 213.042C71.1788 211.987 70.7222 210.756 70.5992 209.348C70.4696 207.937 70.7092 206.436 71.3181 204.844C71.922 203.265 72.7416 201.997 73.777 201.039C74.8057 200.079 75.9664 199.47 77.2591 199.211C78.5451 198.95 79.878 199.084 81.2578 199.612ZM80.451 201.721C79.4029 201.32 78.4377 201.259 77.5556 201.538C76.6735 201.816 75.9024 202.331 75.2425 203.082C74.5825 203.834 74.0572 204.72 73.6664 205.742C73.2757 206.763 73.0742 207.777 73.0618 208.784C73.0494 209.791 73.2775 210.695 73.7461 211.498C74.2146 212.301 74.973 212.902 76.0211 213.303C77.0692 213.704 78.0356 213.762 78.9203 213.477C79.805 213.192 80.5786 212.67 81.241 211.912C81.9035 211.154 82.4301 210.265 82.8209 209.243C83.2116 208.221 83.4119 207.211 83.4217 206.211C83.4316 205.211 83.2009 204.313 82.7298 203.517C82.2587 202.72 81.4991 202.122 80.451 201.721Z" fill="#3D3D3D"/>
<path d="M62.0623 209.114L59.8698 207.884L68.4624 192.573C68.956 191.694 69.5353 191.017 70.2003 190.544C70.8591 190.066 71.591 189.821 72.3961 189.809C73.195 189.793 74.0528 190.042 74.9694 190.557C75.0438 190.599 75.1181 190.64 75.1924 190.682C75.2667 190.724 75.3411 190.765 75.4154 190.807L74.2683 192.851C74.194 192.809 74.1259 192.771 74.0639 192.736C74.002 192.702 73.9339 192.663 73.8595 192.622C73.1906 192.246 72.5901 192.17 72.058 192.392C71.5293 192.609 71.0616 193.079 70.6549 193.804L62.0623 209.114ZM59.6499 210.888C60.0772 211.128 60.3641 211.48 60.5104 211.945C60.6505 212.406 60.6058 212.841 60.3764 213.25C60.147 213.659 59.7989 213.924 59.332 214.045C58.859 214.162 58.4088 214.101 57.9814 213.861C57.554 213.621 57.2703 213.27 57.1302 212.809C56.9839 212.344 57.0254 211.907 57.2549 211.498C57.4843 211.09 57.8355 210.827 58.3086 210.709C58.7754 210.588 59.2225 210.648 59.6499 210.888Z" fill="#3D3D3D"/>
<path d="M57.6389 186.284C58.8868 187.248 59.7506 188.354 60.2303 189.604C60.7 190.855 60.7952 192.167 60.516 193.54C60.2268 194.914 59.57 196.264 58.5455 197.591C57.5211 198.917 56.3765 199.9 55.1118 200.538C53.837 201.178 52.5448 201.446 51.2351 201.341C49.9154 201.237 48.6709 200.734 47.5016 199.831C46.8271 199.31 46.2477 198.683 45.7637 197.95C45.2796 197.218 44.9631 196.39 44.8141 195.467C44.6607 194.55 44.7429 193.555 45.0606 192.481C45.3782 191.407 46.0037 190.266 46.9369 189.057L47.5881 188.214L57.5717 195.923L56.2434 197.644L48.2835 191.497C47.7192 192.228 47.3618 192.993 47.2114 193.792C47.0553 194.587 47.1163 195.356 47.3942 196.1C47.6665 196.84 48.1624 197.487 48.882 198.043C49.6746 198.655 50.5123 198.988 51.3952 199.041C52.2681 199.096 53.1 198.931 53.891 198.546C54.682 198.161 55.3532 197.611 55.9045 196.897L56.79 195.75C57.5452 194.772 58.0169 193.813 58.2048 192.872C58.3828 191.933 58.3049 191.052 57.9713 190.229C57.6333 189.412 57.0624 188.692 56.2585 188.072C55.7357 187.668 55.2071 187.377 54.6726 187.197C54.1282 187.019 53.5864 186.96 53.0471 187.019C52.5036 187.084 51.9738 187.276 51.4579 187.595L49.9521 185.571C50.658 185.075 51.4408 184.764 52.3007 184.639C53.1561 184.519 54.0415 184.592 54.9569 184.859C55.8679 185.132 56.7619 185.607 57.6389 186.284Z" fill="#3D3D3D"/>
<path d="M47.2717 176.848C48.3364 177.952 48.9926 179.155 49.2401 180.455C49.4875 181.756 49.3607 183.062 48.8596 184.374C48.3584 185.685 47.5199 186.908 46.3439 188.042C45.1475 189.196 43.8797 189.994 42.5405 190.436C41.1913 190.879 39.8765 190.953 38.596 190.658C37.3055 190.363 36.1475 189.684 35.1222 188.621C34.3236 187.792 33.7573 186.898 33.4232 185.938C33.0892 184.977 32.9937 184.019 33.1367 183.062C33.2798 182.105 33.6701 181.221 34.3078 180.408L36.0529 182.218C35.6491 182.874 35.4694 183.639 35.5137 184.514C35.5479 185.389 35.9495 186.225 36.7185 187.022C37.3988 187.728 38.1794 188.169 39.0602 188.346C39.9309 188.523 40.8416 188.439 41.7922 188.095C42.7327 187.75 43.6478 187.149 44.5375 186.291C45.4476 185.414 46.1021 184.507 46.5009 183.57C46.8949 182.627 47.0246 181.713 46.8901 180.827C46.7507 179.935 46.3359 179.131 45.6458 178.416C45.1922 177.945 44.6988 177.597 44.1655 177.371C43.6322 177.146 43.0839 177.048 42.5208 177.078C41.9577 177.107 41.4072 177.273 40.8693 177.575L39.1242 175.765C39.9182 175.197 40.7885 174.846 41.7353 174.713C42.672 174.579 43.6219 174.684 44.585 175.028C45.5381 175.372 46.4337 175.979 47.2717 176.848Z" fill="#3D3D3D"/>
<path d="M23.269 173.418L25.0019 172.178L29.9361 179.075L28.2032 180.315L23.269 173.418ZM23.5766 180.586L22.1137 178.541L34.7983 169.466C35.3759 169.053 35.7492 168.659 35.9182 168.285C36.0772 167.909 36.1108 167.554 36.0189 167.218C35.9171 166.88 35.7587 166.561 35.5438 166.261C35.3827 166.035 35.2389 165.859 35.1125 165.731C34.9803 165.607 34.8745 165.508 34.7952 165.434L36.3345 163.704C36.4857 163.805 36.6761 163.962 36.9058 164.173C37.1412 164.38 37.3953 164.674 37.6681 165.055C38.0813 165.633 38.3621 166.288 38.5105 167.02C38.6547 167.746 38.6028 168.473 38.3549 169.201C38.1028 169.923 37.5897 170.561 36.8157 171.114L23.5766 180.586Z" fill="#3D3D3D"/>
<path d="M18.1182 156.488L19.7194 158.204C19.4496 158.502 19.2201 158.856 19.0309 159.265C18.8322 159.67 18.7358 160.135 18.7417 160.659C18.7475 161.183 18.9177 161.771 19.2522 162.421C19.7101 163.312 20.297 163.948 21.0128 164.331C21.7191 164.711 22.3849 164.74 23.0102 164.418C23.566 164.132 23.9011 163.705 24.0154 163.135C24.1297 162.565 24.0734 161.795 23.8465 160.826L23.2664 158.393C22.9133 156.929 22.898 155.711 23.2206 154.739C23.5368 153.77 24.2034 153.024 25.2204 152.501C26.0541 152.072 26.9229 151.929 27.8266 152.071C28.727 152.207 29.586 152.604 30.4033 153.262C31.2207 153.92 31.9201 154.814 32.5014 155.945C33.2645 157.429 33.574 158.823 33.4299 160.127C33.2857 161.431 32.6612 162.531 31.5563 163.426L29.9346 161.577C30.6139 160.972 31.0049 160.288 31.1075 159.524C31.2068 158.755 31.021 157.912 30.5501 156.996C30.0143 155.954 29.3678 155.24 28.6107 154.855C27.844 154.466 27.148 154.433 26.5226 154.754C26.0173 155.014 25.6851 155.408 25.5258 155.937C25.3603 156.47 25.3806 157.146 25.5868 157.966L26.2653 160.684C26.6347 162.179 26.6486 163.41 26.3068 164.376C25.9556 165.34 25.2778 166.079 24.2735 166.596C23.4523 167.018 22.6074 167.161 21.7387 167.024C20.8668 166.882 20.0446 166.502 19.2721 165.885C18.4964 165.261 17.8455 164.438 17.3194 163.415C16.579 161.975 16.3135 160.682 16.523 159.536C16.7292 158.384 17.261 157.368 18.1182 156.488Z" fill="#3D3D3D"/>
<path d="M14.2386 132.958L9.59814 133.642L12.7904 137.083L11.2161 138.414L8.32044 134.702L6.94184 139.203L4.99607 138.522L6.74862 134.169L2.17005 135.188L1.79852 133.176L6.43901 132.492L3.24679 129.052L4.82102 127.721L7.71671 131.433L9.09531 126.932L11.0411 127.612L9.28854 131.966L13.8671 130.947L14.2386 132.958Z" fill="#3D3D3D"/>
<path d="M27.9581 110.91L5.59308 108.45L5.85874 106.035L8.44258 106.319L8.4752 106.023C8.21301 105.808 7.88093 105.515 7.47897 105.142C7.07072 104.761 6.72742 104.244 6.44908 103.592C6.16445 102.932 6.0804 102.073 6.19691 101.014C6.34761 99.6441 6.82283 98.4745 7.62258 97.5051C8.42234 96.5356 9.48276 95.827 10.8039 95.3793C12.1249 94.9316 13.6397 94.8018 15.3482 94.9898C17.0707 95.1793 18.5316 95.6366 19.7308 96.3615C20.9229 97.0858 21.8079 98.0048 22.3855 99.1187C22.9561 100.232 23.1668 101.466 23.0177 102.822C22.9027 103.866 22.6377 104.684 22.2227 105.274C21.8005 105.864 21.3485 106.303 20.8664 106.593C20.3773 106.882 19.9744 107.102 19.6577 107.253L19.6344 107.465L28.2331 108.411L27.9581 110.91ZM13.9961 106.888C15.2245 107.023 16.328 106.962 17.3065 106.705C18.278 106.448 19.0666 106.002 19.6722 105.369C20.2707 104.734 20.6251 103.916 20.7354 102.913C20.8504 101.869 20.671 100.966 20.1973 100.207C19.7172 99.4396 19.0272 98.8278 18.1271 98.3715C17.2207 97.9074 16.1886 97.6116 15.0308 97.4842C13.8871 97.3584 12.837 97.4215 11.8804 97.6735C10.9175 97.9176 10.129 98.3632 9.51478 99.0101C8.89429 99.6492 8.52578 100.498 8.40926 101.557C8.2974 102.574 8.46109 103.456 8.90032 104.205C9.33249 104.953 9.98804 105.554 10.867 106.007C11.7388 106.461 12.7819 106.754 13.9961 106.888Z" fill="#3D3D3D"/>
<path d="M24.1619 93.9034L8.33035 89.7645L8.94472 87.4145L11.3359 88.0396L11.3791 87.8747C10.6712 87.3813 10.1721 86.693 9.88184 85.8096C9.59158 84.9262 9.5704 84.0104 9.81831 83.0621C9.86501 82.8835 9.92683 82.661 10.0038 82.3948C10.0807 82.1287 10.144 81.9287 10.1937 81.7948L12.6673 82.4415C12.6252 82.5186 12.5449 82.6995 12.4264 82.9842C12.3028 83.2602 12.1988 83.5597 12.1144 83.8826C11.9132 84.6522 11.8951 85.3816 12.0599 86.0707C12.2197 86.7511 12.5355 87.3402 13.0074 87.8379C13.4741 88.327 14.0648 88.665 14.7794 88.8518L24.7978 91.4709L24.1619 93.9034Z" fill="#3D3D3D"/>
<path d="M29.6414 78.1529C29.0636 79.5125 28.2331 80.5679 27.1499 81.3192C26.0695 82.0639 24.8253 82.4766 23.4173 82.5574C22.0121 82.6317 20.5317 82.3382 18.976 81.6771C17.4072 81.0105 16.1587 80.1442 15.2303 79.0783C14.3047 78.0059 13.735 76.8223 13.5212 75.5276C13.3102 74.2264 13.4936 72.896 14.0713 71.5364C14.6491 70.1768 15.4782 69.1246 16.5586 68.3799C17.6419 67.6287 18.8893 67.2173 20.301 67.1458C21.7155 67.0678 23.2071 67.3622 24.7759 68.0288C26.3316 68.6899 27.569 69.5553 28.4881 70.6249C29.4099 71.6881 29.9763 72.8702 30.1874 74.1715C30.4011 75.4662 30.2192 76.7933 29.6414 78.1529ZM27.5628 77.2696C28.0016 76.2368 28.098 75.2746 27.8519 74.3829C27.6058 73.4911 27.1193 72.7018 26.3926 72.0148C25.6659 71.3279 24.7992 70.7705 23.7926 70.3428C22.786 69.915 21.7799 69.6765 20.7745 69.6274C19.769 69.5782 18.8566 69.7731 18.0373 70.2121C17.2179 70.651 16.5888 71.3869 16.1499 72.4197C15.7111 73.4525 15.618 74.4161 15.8706 75.3106C16.1233 76.2051 16.6163 76.9972 17.3495 77.6869C18.0828 78.3767 18.9527 78.9354 19.9593 79.3632C20.966 79.791 21.9687 80.028 22.9677 80.0744C23.9666 80.1208 24.8725 79.9231 25.6853 79.4814C26.498 79.0396 27.1239 78.3024 27.5628 77.2696Z" fill="#3D3D3D"/>
<path d="M20.846 58.6232L22.1557 56.4771L37.1421 65.6231C38.003 66.1485 38.658 66.7521 39.1072 67.434C39.5601 68.1098 39.7781 68.8502 39.761 69.6552C39.7477 70.4541 39.4673 71.3022 38.9197 72.1995C38.8753 72.2722 38.8309 72.345 38.7865 72.4177C38.7421 72.4905 38.6977 72.5632 38.6533 72.636L36.6527 71.415C36.6971 71.3423 36.7378 71.2756 36.7748 71.215C36.8118 71.1543 36.8525 71.0876 36.8969 71.0149C37.2964 70.3601 37.3947 69.7628 37.1917 69.2229C36.9948 68.6867 36.5417 68.2021 35.8324 67.7693L20.846 58.6232ZM19.1618 56.1476C18.9065 56.5659 18.5439 56.8397 18.0739 56.9689C17.6077 57.0921 17.1745 57.0316 16.7744 56.7874C16.3743 56.5432 16.1224 56.1856 16.0188 55.7146C15.9188 55.2376 15.9965 54.79 16.2518 54.3717C16.5071 53.9533 16.8679 53.6826 17.3341 53.5594C17.804 53.4302 18.239 53.4877 18.6392 53.7319C19.0393 53.9761 19.2893 54.3367 19.3892 54.8137C19.4929 55.2846 19.4171 55.7293 19.1618 56.1476Z" fill="#3D3D3D"/>
<path d="M43.8225 55.0365C42.8139 56.2484 41.6764 57.0713 40.41 57.5049C39.1426 57.9286 37.8282 57.9759 36.4667 57.6467C35.1042 57.3075 33.7788 56.6018 32.4905 55.5296C31.2021 54.4575 30.262 53.2778 29.67 51.9905C29.0772 50.6932 28.8572 49.3921 29.01 48.0871C29.1619 46.7721 29.7103 45.5468 30.6553 44.4113C31.2004 43.7562 31.848 43.2002 32.5979 42.7432C33.3478 42.2862 34.1865 42.0001 35.114 41.8849C36.036 41.7651 37.0277 41.8836 38.0891 42.2403C39.1506 42.5969 40.2682 43.2637 41.4419 44.2404L42.2608 44.9219L34.1922 54.6173L32.5217 53.2271L38.9547 45.497C38.2451 44.9064 37.4937 44.5213 36.7006 44.3418C35.9121 44.1568 35.141 44.1896 34.3873 44.4402C33.6381 44.6853 32.9728 45.1572 32.3913 45.856C31.7507 46.6258 31.3875 47.4508 31.3017 48.3311C31.215 49.2014 31.3497 50.0388 31.7058 50.8434C32.0618 51.6479 32.5865 52.3387 33.2799 52.9156L34.3935 53.8424C35.3434 54.6329 36.2849 55.1393 37.2181 55.3615C38.1503 55.5736 39.0337 55.528 39.8683 55.2246C40.6974 54.9167 41.4368 54.3724 42.0865 53.5918C42.509 53.0841 42.8197 52.5665 43.0184 52.0389C43.2163 51.5013 43.2955 50.962 43.2561 50.421C43.2112 49.8754 43.0385 49.339 42.738 48.8118L44.8159 47.3809C45.2856 48.1044 45.5675 48.8981 45.6618 49.7619C45.7506 50.6212 45.6448 51.5034 45.3444 52.4084C45.0385 53.3088 44.5312 54.1849 43.8225 55.0365Z" fill="#3D3D3D"/>
<path d="M53.631 45.0209C52.4885 46.0446 51.2629 46.6564 49.9543 46.8562C48.6457 47.056 47.3451 46.8816 46.0524 46.3328C44.7597 45.7841 43.5683 44.9015 42.4782 43.6849C41.3692 42.4471 40.6179 41.151 40.2245 39.7966C39.8316 38.4321 39.8057 37.1155 40.1469 35.8466C40.4886 34.5677 41.2096 33.4353 42.3099 32.4495C43.1668 31.6817 44.0812 31.1485 45.0533 30.8497C46.0253 30.5509 46.9867 30.4905 47.9376 30.6684C48.8885 30.8463 49.7581 31.2687 50.5464 31.9356L48.6739 33.6134C48.0334 33.1859 47.2753 32.9784 46.3994 32.9907C45.5242 32.993 44.6739 33.3638 43.8488 34.1032C43.1188 34.7572 42.6494 35.5211 42.4405 36.3949C42.2322 37.2586 42.2827 38.1717 42.592 39.1343C42.9019 40.0868 43.4692 41.0232 44.2939 41.9436C45.1375 42.8852 46.0202 43.5723 46.942 44.0051C47.8692 44.4332 48.7781 44.5962 49.6689 44.4942C50.565 44.3874 51.3833 44.0023 52.1239 43.3388C52.6105 42.9027 52.9764 42.4224 53.2214 41.8976C53.4665 41.3729 53.5844 40.8286 53.575 40.2648C53.5657 39.701 53.4202 39.1448 53.1385 38.5962L55.011 36.9184C55.5497 37.7326 55.8685 38.6151 55.9672 39.5661C56.0665 40.5071 55.9266 41.4525 55.5476 42.4024C55.1691 43.3423 54.5303 44.2151 53.631 45.0209Z" fill="#3D3D3D"/>
<path d="M57.9351 21.1594L59.1107 22.9364L52.0383 27.6155L50.8627 25.8385L57.9351 21.1594ZM50.7608 21.2051L52.8576 19.8178L61.4633 32.8254C61.8552 33.4177 62.235 33.8051 62.6027 33.9876C62.9725 34.1603 63.3269 34.2069 63.6659 34.1273C64.007 34.0379 64.3316 33.8913 64.6396 33.6875C64.8706 33.5347 65.0523 33.3974 65.1847 33.2758C65.3132 33.1482 65.416 33.0461 65.4931 32.9696L67.1658 34.571C67.0589 34.7184 66.8957 34.903 66.6763 35.1248C66.4608 35.3525 66.1575 35.5957 65.7666 35.8544C65.1743 36.2462 64.5095 36.5029 63.7724 36.6244C63.0412 36.742 62.3166 36.6636 61.5985 36.3893C60.8864 36.111 60.2678 35.575 59.7427 34.7813L50.7608 21.2051Z" fill="#3D3D3D"/>
<path d="M75.0425 16.6305L73.2688 18.1679C72.9804 17.8873 72.6355 17.6451 72.2339 17.4411C71.8358 17.2277 71.3748 17.1144 70.8509 17.1011C70.327 17.0879 69.7338 17.2365 69.0715 17.547C68.1647 17.9721 67.5071 18.5353 67.0986 19.2366C66.6934 19.9286 66.6401 20.5929 66.9386 21.2295C67.2038 21.7954 67.6191 22.1459 68.1845 22.2809C68.7498 22.4159 69.521 22.3878 70.498 22.1964L72.9506 21.7056C74.426 21.4062 75.6438 21.4354 76.6038 21.7933C77.5608 22.1447 78.282 22.8381 78.7673 23.8735C79.1652 24.7223 79.2766 25.5957 79.1014 26.4936C78.9326 27.3885 78.5046 28.2324 77.8173 29.0252C77.13 29.818 76.2108 30.4842 75.0597 31.0238C73.5485 31.7323 72.144 31.9906 70.8461 31.799C69.5483 31.6073 68.4721 30.943 67.6176 29.8062L69.5251 28.2531C70.1047 28.954 70.7741 29.3697 71.5334 29.5001C72.2991 29.6275 73.1481 29.4726 74.0806 29.0355C75.1416 28.5381 75.8786 27.9181 76.2913 27.1756C76.7075 26.4235 76.7664 25.7292 76.4679 25.0926C76.2267 24.5781 75.8447 24.2317 75.3218 24.0532C74.7959 23.8683 74.1192 23.8639 73.2919 24.04L70.5512 24.6189C69.0435 24.9334 67.8131 24.9023 66.86 24.5255C65.9102 24.1393 65.1957 23.4349 64.7163 22.4124C64.3244 21.5764 64.2125 20.7269 64.3805 19.8637C64.5549 18.9976 64.9645 18.1898 65.6094 17.4404C66.2607 16.688 67.1072 16.0676 68.149 15.5792C69.6152 14.8919 70.9171 14.6738 72.0545 14.925C73.1984 15.1731 74.1944 15.7416 75.0425 16.6305Z" fill="#3D3D3D"/>
<path d="M98.6977 13.6128L98.1838 8.95042L94.6291 12.0149L93.3567 10.3931L97.1719 7.63489L92.7238 6.0928L93.475 4.17319L97.7619 6.08358L96.9108 1.47085L98.9344 1.17303L99.4483 5.83539L103.003 2.77095L104.275 4.39274L100.46 7.15093L104.908 8.69301L104.157 10.6126L99.8702 8.70224L100.721 13.315L98.6977 13.6128Z" fill="#3D3D3D"/>
<path d="M120.23 28.1283L123.506 5.86812L125.909 6.22178L125.531 8.79351L125.826 8.83694C126.05 8.58277 126.355 8.26164 126.743 7.87356C127.138 7.47949 127.667 7.15528 128.329 6.90095C128.999 6.64062 129.861 6.58801 130.915 6.74313C132.278 6.94374 133.429 7.46136 134.369 8.29599C135.309 9.13061 135.978 10.2162 136.377 11.5528C136.776 12.8893 136.851 14.4078 136.601 16.1083C136.348 17.8228 135.838 19.266 135.07 20.4379C134.302 21.6028 133.352 22.4535 132.217 22.9901C131.084 23.5197 129.843 23.6852 128.494 23.4867C127.454 23.3336 126.647 23.0389 126.072 22.6026C125.498 22.1592 125.075 21.6914 124.803 21.1991C124.532 20.6997 124.327 20.2891 124.188 19.9671L123.977 19.936L122.717 28.4944L120.23 28.1283ZM124.76 14.3226C124.58 15.5452 124.6 16.6502 124.821 17.6375C125.043 18.6177 125.46 19.422 126.071 20.0503C126.683 20.6717 127.488 21.0557 128.485 21.2026C129.525 21.3556 130.433 21.2093 131.21 20.7636C131.994 20.3119 132.631 19.6446 133.12 18.7618C133.616 17.873 133.95 16.8524 134.119 15.7C134.287 14.5617 134.262 13.51 134.045 12.5448C133.836 11.5737 133.42 10.7694 132.796 10.132C132.18 9.48853 131.345 9.08926 130.291 8.93415C129.279 8.78524 128.391 8.91658 127.627 9.32818C126.864 9.73275 126.24 10.3659 125.754 11.2277C125.269 12.0824 124.938 13.114 124.76 14.3226Z" fill="#3D3D3D"/>
<path d="M137.364 24.9558L142.079 9.28598L144.405 9.98576L143.693 12.3526L143.856 12.4017C144.375 11.7123 145.081 11.2387 145.974 10.9809C146.868 10.7231 147.784 10.7354 148.722 11.0177C148.899 11.0709 149.119 11.1408 149.382 11.2274C149.645 11.314 149.843 11.3846 149.975 11.4391L149.238 13.8875C149.163 13.8426 148.985 13.7557 148.705 13.6269C148.434 13.4934 148.138 13.3785 147.818 13.2823C147.057 13.0532 146.328 13.0084 145.634 13.148C144.948 13.2828 144.348 13.5769 143.833 14.0302C143.327 14.4788 142.968 15.0568 142.755 15.7641L139.772 25.6801L137.364 24.9558Z" fill="#3D3D3D"/>
<path d="M152.904 31.0069C151.567 30.3798 150.542 29.5113 149.831 28.4014C149.126 27.2945 148.759 26.036 148.73 24.6261C148.707 23.2191 149.054 21.7504 149.772 20.2199C150.495 18.6765 151.407 17.4604 152.506 16.5716C153.611 15.6858 154.815 15.1597 156.116 14.9933C157.424 14.83 158.747 15.0618 160.085 15.6888C161.422 16.3159 162.444 17.1829 163.148 18.2898C163.86 19.3997 164.225 20.6614 164.245 22.0748C164.271 23.4911 163.923 24.971 163.199 26.5144C162.482 28.0449 161.572 29.2499 160.469 30.1293C159.373 31.0117 158.171 31.5345 156.863 31.6979C155.561 31.8642 154.242 31.6339 152.904 31.0069ZM153.863 28.9619C154.879 29.4382 155.837 29.5697 156.737 29.3563C157.637 29.1429 158.444 28.6856 159.157 27.9844C159.87 27.2833 160.458 26.4376 160.923 25.4472C161.387 24.4569 161.662 23.4602 161.748 22.4572C161.834 21.4542 161.672 20.5353 161.263 19.7005C160.855 18.8657 160.142 18.2101 159.126 17.7338C158.11 17.2575 157.151 17.1293 156.247 17.3491C155.344 17.5689 154.535 18.0326 153.819 18.7402C153.103 19.4478 152.513 20.2967 152.048 21.2871C151.584 22.2774 151.31 23.2709 151.228 24.2674C151.145 25.264 151.309 26.1765 151.721 27.0049C152.133 27.8332 152.847 28.4856 153.863 28.9619Z" fill="#3D3D3D"/>
<path d="M172.742 22.9306L174.839 24.3179L165.152 38.9602C164.595 39.8013 163.968 40.4339 163.27 40.8579C162.578 41.2858 161.83 41.4765 161.027 41.4301C160.229 41.3876 159.391 41.0764 158.515 40.4964C158.444 40.4494 158.373 40.4024 158.301 40.3553C158.23 40.3083 158.159 40.2613 158.088 40.2142L159.381 38.2596C159.453 38.3066 159.518 38.3497 159.577 38.3889C159.636 38.4281 159.701 38.4712 159.772 38.5182C160.412 38.9414 161.005 39.0615 161.552 38.8783C162.095 38.7011 162.596 38.266 163.055 37.573L172.742 22.9306ZM175.277 21.3379C174.869 21.0675 174.608 20.6952 174.496 20.2208C174.39 19.7504 174.467 19.3197 174.725 18.9288C174.984 18.5379 175.351 18.2992 175.825 18.2128C176.305 18.1304 176.75 18.2244 177.159 18.4948C177.567 18.7652 177.825 19.1356 177.931 19.606C178.043 20.0803 177.969 20.513 177.711 20.9039C177.452 21.2948 177.083 21.5315 176.602 21.614C176.128 21.7003 175.686 21.6083 175.277 21.3379Z" fill="#3D3D3D"/>
<path d="M175.487 46.0228C174.313 44.9706 173.532 43.8038 173.145 42.5224C172.768 41.2404 172.769 39.9251 173.147 38.5765C173.536 37.2274 174.29 35.9286 175.408 34.6803C176.527 33.432 177.74 32.5355 179.048 31.991C180.366 31.4459 181.674 31.2736 182.973 31.4739C184.282 31.6738 185.486 32.2666 186.586 33.2524C187.221 33.8211 187.753 34.4885 188.182 35.2546C188.612 36.0208 188.867 36.8693 188.948 37.8004C189.034 38.7261 188.879 39.7129 188.484 40.7606C188.089 41.8083 187.382 42.9008 186.363 44.0381L185.652 44.8315L176.258 36.4142L177.708 34.7956L185.198 41.5067C185.814 40.819 186.226 40.0822 186.435 39.2962C186.649 38.515 186.644 37.7432 186.421 36.9808C186.203 36.2233 185.756 35.5411 185.079 34.9345C184.333 34.2662 183.522 33.8731 182.645 33.7552C181.779 33.6368 180.937 33.7408 180.12 34.0673C179.303 34.3937 178.594 34.8929 177.992 35.5646L177.025 36.6437C176.2 37.5641 175.66 38.4865 175.404 39.4109C175.158 40.3348 175.171 41.2192 175.444 42.0644C175.721 42.9042 176.238 43.6629 176.994 44.3407C177.486 44.7815 177.992 45.1108 178.512 45.3288C179.042 45.5461 179.578 45.645 180.12 45.6253C180.667 45.6003 181.209 45.4474 181.747 45.1664L183.101 47.2951C182.361 47.7381 181.558 47.9909 180.691 48.0535C179.829 48.1108 178.951 47.9729 178.058 47.6396C177.169 47.3011 176.312 46.7621 175.487 46.0228Z" fill="#3D3D3D"/>
<path d="M185.138 56.1906C184.157 55.0114 183.59 53.7643 183.438 52.4493C183.286 51.1342 183.508 49.8408 184.104 48.5691C184.699 47.2973 185.625 46.1389 186.88 45.094C188.158 44.0309 189.48 43.3275 190.848 42.9837C192.226 42.6409 193.543 42.6632 194.799 43.0505C196.064 43.4387 197.169 44.2006 198.114 45.3361C198.85 46.2205 199.35 47.1538 199.613 48.1361C199.876 49.1183 199.901 50.0814 199.689 51.0251C199.476 51.9689 199.022 52.8225 198.327 53.5859L196.719 51.6533C197.169 51.0289 197.404 50.2788 197.424 49.4032C197.454 48.5284 197.114 47.6652 196.406 46.8135C195.779 46.0602 195.032 45.5632 194.167 45.3225C193.311 45.0828 192.397 45.0999 191.424 45.3739C190.461 45.6488 189.504 46.1815 188.554 46.972C187.582 47.7807 186.863 48.6377 186.397 49.5431C185.936 50.454 185.739 51.3564 185.809 52.2503C185.883 53.1497 186.238 53.9816 186.874 54.7459C187.292 55.2481 187.759 55.6312 188.274 55.8953C188.789 56.1594 189.329 56.297 189.893 56.3083C190.457 56.3196 191.018 56.1945 191.576 55.933L193.185 57.8655C192.351 58.3742 191.458 58.6605 190.504 58.7244C189.56 58.7893 188.62 58.615 187.685 58.2015C186.759 57.7889 185.91 57.1186 185.138 56.1906Z" fill="#3D3D3D"/>
<path d="M208.826 61.3632L207.007 62.4732L202.59 55.2346L204.409 54.1246L208.826 61.3632ZM209.043 54.192L210.352 56.3382L197.039 64.4631C196.433 64.833 196.032 65.1984 195.836 65.5592C195.65 65.9224 195.591 66.2749 195.658 66.6166C195.735 66.9608 195.869 67.2905 196.062 67.6057C196.206 67.8421 196.336 68.0287 196.453 68.1655C196.576 68.2986 196.674 68.405 196.748 68.4849L195.086 70.0979C194.943 69.9857 194.765 69.8159 194.551 69.5885C194.331 69.3648 194.099 69.0529 193.855 68.6528C193.485 68.0466 193.253 67.3729 193.158 66.6318C193.068 65.8968 193.172 65.1755 193.473 64.468C193.777 63.7665 194.335 63.1679 195.147 62.6721L209.043 54.192Z" fill="#3D3D3D"/>
<path d="M212.727 78.6246L211.256 76.796C211.547 76.518 211.801 76.1821 212.02 75.7883C212.248 75.3983 212.378 74.9417 212.41 74.4186C212.443 73.8956 212.316 73.2974 212.03 72.6241C211.638 71.7025 211.099 71.0247 210.413 70.5908C209.736 70.1607 209.075 70.0831 208.427 70.3581C207.852 70.6026 207.487 71.0048 207.331 71.5648C207.176 72.1248 207.176 72.8965 207.331 73.8799L207.732 76.3487C207.977 77.8342 207.904 79.05 207.511 79.9963C207.125 80.9398 206.406 81.6352 205.353 82.0824C204.49 82.4491 203.613 82.5285 202.723 82.3206C201.834 82.1192 201.007 81.6606 200.24 80.9449C199.472 80.2291 198.84 79.2862 198.343 78.1162C197.69 76.5801 197.483 75.167 197.722 73.8771C197.961 72.5871 198.664 71.5359 199.832 70.7235L201.314 72.6864C200.592 73.2401 200.153 73.8938 199.994 74.6478C199.839 75.4083 199.963 76.2625 200.366 77.2103C200.824 78.2888 201.417 79.0479 202.144 79.4875C202.88 79.9308 203.572 80.015 204.219 79.74C204.742 79.5178 205.102 79.1487 205.299 78.6326C205.503 78.1138 205.532 77.4378 205.387 76.6045L204.908 73.8445C204.649 72.3264 204.725 71.098 205.136 70.1592C205.557 69.2242 206.287 68.5358 207.326 68.0942C208.176 67.7331 209.029 67.6522 209.886 67.8516C210.745 68.0575 211.537 68.4964 212.263 69.1682C212.991 69.8466 213.58 70.7152 214.03 71.7741C214.663 73.2645 214.833 74.5734 214.541 75.7009C214.251 76.835 213.647 77.8095 212.727 78.6246Z" fill="#3D3D3D"/>
<path d="M214.879 102.374L219.557 102.031L216.625 98.3667L218.292 97.1544L220.909 101.068L222.612 96.679L224.503 97.4998L222.437 101.714L227.078 101.032L227.302 103.065L222.624 103.408L225.556 107.073L223.889 108.285L221.272 104.372L219.569 108.76L217.678 107.94L219.744 103.725L215.103 104.407L214.879 102.374Z" fill="#3D3D3D"/>
<path d="M199.587 123.362L221.713 127.449L221.271 129.837L218.715 129.365L218.661 129.659C218.907 129.892 219.217 130.209 219.59 130.61C219.97 131.02 220.274 131.56 220.504 132.231C220.74 132.91 220.761 133.773 220.568 134.821C220.317 136.176 219.758 137.307 218.89 138.216C218.021 139.125 216.912 139.754 215.562 140.104C214.211 140.454 212.691 140.473 211.001 140.161C209.297 139.846 207.873 139.283 206.73 138.473C205.594 137.663 204.779 136.682 204.284 135.529C203.796 134.377 203.676 133.131 203.924 131.79C204.115 130.756 204.439 129.96 204.896 129.402C205.36 128.845 205.843 128.439 206.344 128.185C206.853 127.933 207.271 127.743 207.598 127.615L207.637 127.406L199.13 125.834L199.587 123.362ZM213.218 128.393C212.003 128.169 210.898 128.149 209.903 128.333C208.915 128.519 208.096 128.906 207.446 129.494C206.803 130.083 206.39 130.873 206.206 131.865C206.016 132.899 206.129 133.811 206.546 134.603C206.968 135.404 207.612 136.064 208.476 136.585C209.346 137.114 210.354 137.484 211.5 137.696C212.631 137.905 213.683 137.919 214.655 137.737C215.634 137.564 216.452 137.177 217.112 136.577C217.778 135.985 218.207 135.165 218.401 134.117C218.587 133.112 218.488 132.219 218.104 131.441C217.728 130.663 217.118 130.016 216.274 129.499C215.438 128.984 214.419 128.615 213.218 128.393Z" fill="#3D3D3D"/>
<path d="M202.131 140.601L217.619 145.884L216.834 148.183L214.495 147.385L214.44 147.546C215.11 148.09 215.558 148.813 215.783 149.715C216.008 150.618 215.962 151.533 215.645 152.46C215.586 152.635 215.508 152.852 215.412 153.112C215.316 153.372 215.238 153.567 215.179 153.697L212.759 152.871C212.806 152.797 212.9 152.623 213.039 152.347C213.182 152.081 213.308 151.79 213.415 151.474C213.672 150.721 213.744 149.995 213.629 149.296C213.52 148.606 213.248 147.995 212.814 147.464C212.384 146.942 211.819 146.562 211.12 146.324L201.32 142.98L202.131 140.601Z" fill="#3D3D3D"/>
<path d="M195.517 155.909C196.192 154.595 197.098 153.603 198.233 152.933C199.365 152.269 200.636 151.949 202.046 151.971C203.453 151.999 204.908 152.4 206.411 153.173C207.927 153.952 209.109 154.907 209.957 156.038C210.802 157.175 211.284 158.397 211.402 159.704C211.518 161.017 211.238 162.331 210.562 163.645C209.887 164.958 208.983 165.947 207.851 166.611C206.716 167.281 205.442 167.601 204.029 167.569C202.612 167.543 201.146 167.141 199.63 166.361C198.127 165.589 196.956 164.635 196.118 163.501C195.276 162.374 194.797 161.153 194.682 159.84C194.563 158.533 194.841 157.223 195.517 155.909ZM197.525 156.942C197.012 157.94 196.846 158.893 197.026 159.8C197.207 160.707 197.634 161.53 198.309 162.268C198.984 163.006 199.807 163.625 200.78 164.125C201.753 164.626 202.739 164.937 203.738 165.059C204.737 165.182 205.661 165.054 206.51 164.676C207.36 164.298 208.041 163.61 208.554 162.612C209.067 161.614 209.23 160.66 209.043 159.749C208.857 158.839 208.423 158.013 207.742 157.271C207.061 156.53 206.234 155.909 205.261 155.409C204.289 154.909 203.306 154.599 202.313 154.48C201.32 154.361 200.402 154.492 199.559 154.873C198.717 155.254 198.039 155.944 197.525 156.942Z" fill="#3D3D3D"/>
<path d="M202.863 176.029L201.4 178.074L187.122 167.858C186.301 167.271 185.692 166.621 185.294 165.909C184.892 165.202 184.728 164.447 184.804 163.646C184.876 162.85 185.217 162.024 185.829 161.17C185.878 161.1 185.928 161.031 185.978 160.962C186.027 160.892 186.077 160.823 186.126 160.754L188.032 162.117C187.983 162.187 187.937 162.25 187.896 162.308C187.855 162.366 187.809 162.429 187.76 162.499C187.313 163.122 187.172 163.711 187.335 164.264C187.492 164.813 187.909 165.33 188.584 165.813L202.863 176.029ZM204.362 178.621C204.647 178.222 205.029 177.976 205.507 177.881C205.981 177.792 206.409 177.884 206.79 178.157C207.171 178.43 207.396 178.805 207.465 179.282C207.53 179.765 207.42 180.206 207.135 180.604C206.85 181.003 206.47 181.247 205.996 181.335C205.518 181.43 205.088 181.341 204.707 181.068C204.326 180.795 204.103 180.418 204.038 179.935C203.969 179.457 204.077 179.019 204.362 178.621Z" fill="#3D3D3D"/>
<path d="M179.686 177.929C180.781 176.794 181.975 176.056 183.27 175.716C184.565 175.386 185.879 175.435 187.213 175.863C188.547 176.3 189.817 177.101 191.024 178.264C192.231 179.428 193.082 180.673 193.579 182C194.075 183.337 194.2 184.651 193.952 185.941C193.704 187.241 193.068 188.423 192.043 189.487C191.451 190.1 190.765 190.608 189.984 191.009C189.202 191.41 188.345 191.634 187.412 191.681C186.483 191.733 185.503 191.543 184.47 191.109C183.438 190.676 182.372 189.93 181.272 188.87L180.505 188.13L189.26 179.05L190.825 180.558L183.845 187.798C184.509 188.439 185.231 188.878 186.008 189.115C186.781 189.357 187.553 189.38 188.323 189.186C189.088 188.996 189.786 188.574 190.417 187.919C191.112 187.198 191.534 186.402 191.684 185.53C191.834 184.669 191.761 183.824 191.465 182.995C191.168 182.167 190.695 181.44 190.046 180.814L189.003 179.808C188.113 178.95 187.211 178.377 186.297 178.087C185.382 177.807 184.498 177.788 183.644 178.03C182.794 178.276 182.017 178.765 181.312 179.496C180.854 179.972 180.506 180.465 180.269 180.977C180.033 181.499 179.914 182.031 179.914 182.573C179.919 183.121 180.052 183.668 180.313 184.216L178.137 185.491C177.721 184.736 177.498 183.923 177.467 183.055C177.441 182.192 177.611 181.32 177.977 180.439C178.347 179.563 178.917 178.726 179.686 177.929Z" fill="#3D3D3D"/>
<path d="M169.173 187.202C170.387 186.264 171.654 185.744 172.974 185.64C174.293 185.536 175.578 185.805 176.827 186.447C178.076 187.088 179.2 188.055 180.198 189.348C181.214 190.664 181.869 192.011 182.162 193.391C182.454 194.78 182.384 196.095 181.951 197.336C181.517 198.586 180.715 199.663 179.546 200.566C178.635 201.269 177.684 201.734 176.693 201.961C175.702 202.188 174.739 202.178 173.803 201.932C172.868 201.685 172.032 201.2 171.294 200.477L173.284 198.941C173.892 199.414 174.633 199.676 175.507 199.728C176.38 199.789 177.255 199.482 178.132 198.804C178.908 198.205 179.432 197.478 179.704 196.622C179.975 195.775 179.991 194.861 179.753 193.878C179.513 192.906 179.016 191.931 178.26 190.952C177.488 189.952 176.658 189.202 175.77 188.703C174.876 188.208 173.982 187.98 173.086 188.016C172.184 188.057 171.34 188.382 170.553 188.989C170.036 189.389 169.636 189.841 169.353 190.347C169.071 190.852 168.913 191.386 168.881 191.949C168.85 192.512 168.954 193.078 169.195 193.645L167.205 195.182C166.727 194.331 166.474 193.427 166.445 192.471C166.414 191.526 166.623 190.593 167.07 189.673C167.516 188.764 168.217 187.94 169.173 187.202Z" fill="#3D3D3D"/>
<path d="M163.138 210.685L162.096 208.827L169.491 204.677L170.534 206.535L163.138 210.685ZM170.297 211.164L168.104 212.394L160.471 198.793C160.124 198.174 159.773 197.76 159.42 197.551C159.064 197.351 158.713 197.279 158.369 197.334C158.023 197.398 157.688 197.521 157.366 197.701C157.125 197.837 156.933 197.96 156.793 198.072C156.655 198.19 156.545 198.284 156.463 198.355L154.911 196.636C155.029 196.497 155.205 196.324 155.44 196.119C155.672 195.908 155.992 195.687 156.4 195.458C157.02 195.11 157.702 194.903 158.446 194.836C159.183 194.772 159.9 194.903 160.596 195.229C161.286 195.558 161.864 196.138 162.33 196.968L170.297 211.164Z" fill="#3D3D3D"/>
<path d="M145.746 213.954L147.627 212.55C147.894 212.851 148.221 213.117 148.606 213.35C148.988 213.592 149.439 213.739 149.961 213.79C150.482 213.842 151.085 213.737 151.768 213.475C152.703 213.118 153.4 212.604 153.859 211.934C154.314 211.274 154.415 210.615 154.164 209.958C153.941 209.375 153.552 208.995 152.998 208.819C152.444 208.643 151.673 208.615 150.685 208.734L148.203 209.045C146.709 209.236 145.497 209.118 144.566 208.691C143.637 208.27 142.968 207.526 142.56 206.458C142.225 205.582 142.178 204.703 142.418 203.82C142.652 202.94 143.14 202.13 143.883 201.389C144.627 200.649 145.592 200.051 146.78 199.597C148.338 199.001 149.758 198.846 151.038 199.132C152.319 199.418 153.344 200.159 154.113 201.355L152.097 202.765C151.57 202.023 150.933 201.56 150.185 201.374C149.431 201.191 148.573 201.284 147.611 201.652C146.516 202.07 145.736 202.635 145.27 203.345C144.8 204.065 144.691 204.753 144.942 205.41C145.145 205.941 145.501 206.314 146.009 206.53C146.52 206.753 147.195 206.807 148.033 206.692L150.809 206.314C152.335 206.111 153.56 206.231 154.483 206.677C155.402 207.131 156.063 207.886 156.467 208.941C156.797 209.803 156.846 210.659 156.616 211.507C156.378 212.358 155.911 213.134 155.213 213.834C154.509 214.537 153.619 215.094 152.544 215.505C151.032 216.084 149.718 216.206 148.602 215.873C147.479 215.542 146.527 214.902 145.746 213.954Z" fill="#3D3D3D"/>
<path d="M121.934 215.236L122.106 219.924L125.875 217.127L127.025 218.837L123.019 221.31L127.343 223.172L126.453 225.032L122.317 222.814L122.83 227.476L120.79 227.626L120.617 222.938L116.848 225.735L115.698 224.025L119.704 221.552L115.38 219.69L116.27 217.83L120.406 220.048L119.894 215.386L121.934 215.236Z" fill="#3D3D3D"/>
</svg>
