<svg width="242" height="242" viewBox="0 0 242 242" fill="none" xmlns="http://www.w3.org/2000/svg">
<path d="M121.836 212.616C122.873 212.616 123.814 212.812 124.659 213.202C125.504 213.6 126.175 214.172 126.672 214.918C127.169 215.67 127.418 216.58 127.418 217.645C127.418 218.582 127.233 219.342 126.864 219.925C126.495 220.514 126.001 220.976 125.383 221.31C124.765 221.643 124.084 221.892 123.338 222.055C122.585 222.226 121.829 222.361 121.069 222.46C120.074 222.588 119.268 222.684 118.65 222.748C118.025 222.819 117.571 222.936 117.287 223.099C116.995 223.263 116.85 223.547 116.85 223.952V224.037C116.85 225.088 117.138 225.905 117.713 226.487C118.281 227.07 119.144 227.361 120.302 227.361C121.502 227.361 122.443 227.098 123.125 226.572C123.807 226.047 124.286 225.486 124.563 224.889L126.949 225.741C126.523 226.736 125.955 227.51 125.245 228.064C124.527 228.625 123.746 229.016 122.901 229.236C122.049 229.463 121.211 229.577 120.387 229.577C119.861 229.577 119.258 229.513 118.576 229.385C117.887 229.264 117.223 229.012 116.584 228.629C115.937 228.245 115.401 227.666 114.975 226.892C114.549 226.118 114.336 225.081 114.336 223.781V213H116.85V215.216H116.978C117.148 214.861 117.432 214.481 117.83 214.076C118.228 213.671 118.757 213.327 119.417 213.043C120.078 212.759 120.884 212.616 121.836 212.616ZM121.452 214.875C120.458 214.875 119.62 215.07 118.938 215.461C118.249 215.852 117.731 216.356 117.383 216.974C117.027 217.592 116.85 218.241 116.85 218.923V221.224C116.956 221.097 117.191 220.979 117.553 220.873C117.908 220.773 118.32 220.685 118.789 220.607C119.25 220.536 119.701 220.472 120.142 220.415C120.575 220.365 120.927 220.322 121.196 220.287C121.85 220.202 122.461 220.063 123.029 219.871C123.59 219.687 124.044 219.406 124.392 219.03C124.733 218.661 124.904 218.156 124.904 217.517C124.904 216.643 124.581 215.983 123.934 215.536C123.281 215.095 122.454 214.875 121.452 214.875Z" fill="#3D3D3D"/>
<path d="M109.107 212.437L104.851 233.836L102.385 233.345L103.956 225.446L103.747 225.404C103.511 225.647 103.189 225.952 102.783 226.321C102.368 226.694 101.824 226.992 101.15 227.212C100.468 227.439 99.6042 227.448 98.5594 227.24C97.208 226.971 96.084 226.397 95.1875 225.516C94.291 224.635 93.6769 223.517 93.3454 222.162C93.0139 220.807 93.0158 219.287 93.3511 217.601C93.6892 215.902 94.2713 214.486 95.0975 213.354C95.9223 212.229 96.9145 211.427 98.0743 210.948C99.2327 210.476 100.481 210.373 101.818 210.639C102.849 210.844 103.64 211.179 104.193 211.644C104.743 212.115 105.142 212.604 105.389 213.109C105.635 213.622 105.819 214.042 105.942 214.371L106.235 214.429L106.725 211.963L109.107 212.437ZM105.087 219.979C105.328 218.767 105.363 217.663 105.192 216.665C105.02 215.675 104.644 214.851 104.066 214.193C103.486 213.542 102.701 213.118 101.712 212.921C100.681 212.716 99.7665 212.816 98.9688 213.223C98.1628 213.634 97.4935 214.269 96.9609 215.126C96.42 215.989 96.0359 216.991 95.8087 218.134C95.5842 219.262 95.556 220.314 95.7242 221.289C95.884 222.269 96.2596 223.093 96.8508 223.761C97.4338 224.435 98.2477 224.875 99.2925 225.083C100.296 225.283 101.189 225.196 101.973 224.823C102.755 224.458 103.411 223.857 103.939 223.02C104.466 222.191 104.849 221.177 105.087 219.979Z" fill="#3D3D3D"/>
<path d="M85.9248 205.682C87.2896 206.248 88.3526 207.069 89.1137 208.145C89.8682 209.219 90.2923 210.459 90.386 211.866C90.473 213.27 90.1931 214.754 89.5463 216.315C88.894 217.89 88.0391 219.146 86.9818 220.085C85.9178 221.02 84.7395 221.6 83.4468 221.826C82.1476 222.049 80.8155 221.878 79.4507 221.312C78.0859 220.747 77.0262 219.928 76.2717 218.854C75.5106 217.778 75.0878 216.534 75.0035 215.123C74.9126 213.709 75.1933 212.215 75.8456 210.64C76.4924 209.079 77.3465 207.833 78.4077 206.904C79.4623 205.973 80.6393 205.396 81.9385 205.173C83.2312 204.947 84.56 205.117 85.9248 205.682ZM85.0605 207.769C84.0238 207.34 83.0607 207.252 82.1712 207.506C81.2818 207.761 80.4969 208.254 79.8167 208.987C79.1364 209.72 78.587 210.592 78.1684 211.602C77.7498 212.613 77.5206 213.621 77.4806 214.627C77.4406 215.633 77.6439 216.543 78.0903 217.359C78.5367 218.174 79.2783 218.796 80.315 219.226C81.3518 219.655 82.3162 219.739 83.2084 219.479C84.1005 219.218 84.8881 218.718 85.5711 217.978C86.2541 217.239 86.8049 216.364 87.2235 215.353C87.642 214.343 87.8699 213.338 87.9072 212.338C87.9444 211.339 87.7385 210.435 87.2893 209.626C86.8402 208.818 86.0973 208.199 85.0605 207.769Z" fill="#3D3D3D"/>
<path d="M62.9297 200.893L57.5555 208.936L55.465 207.539L64.5561 193.933L66.6466 195.33L65.1077 197.633L65.2495 197.727C66.03 197.25 66.9187 196.994 67.9154 196.959C68.9083 196.931 69.9184 197.26 70.946 197.946C71.7963 198.514 72.4279 199.205 72.8407 200.019C73.2496 200.839 73.3905 201.753 73.2633 202.762C73.1323 203.776 72.68 204.862 71.9067 206.02L66.13 214.665L64.0395 213.268L69.7215 204.764C70.3844 203.772 70.6356 202.796 70.475 201.834C70.3086 200.869 69.7914 200.096 68.9233 199.516C68.4036 199.169 67.7863 198.948 67.0714 198.855C66.3505 198.758 65.6235 198.862 64.8904 199.166C64.1514 199.467 63.4979 200.042 62.9297 200.893Z" fill="#3D3D3D"/>
<path d="M41.2157 194.465L42.7223 192.958L48.7187 198.955L47.2121 200.461L41.2157 194.465ZM42.6922 201.486L40.9144 199.708L51.9428 188.68C52.445 188.177 52.7489 187.728 52.8543 187.331C52.9498 186.934 52.9247 186.578 52.779 186.261C52.6233 185.945 52.4149 185.656 52.1538 185.395C51.9579 185.199 51.7872 185.049 51.6415 184.943C51.4909 184.843 51.3703 184.762 51.2799 184.702L52.5154 182.744C52.6811 182.819 52.8945 182.942 53.1557 183.113C53.4218 183.278 53.7207 183.527 54.0521 183.858C54.5543 184.361 54.9385 184.961 55.2047 185.659C55.4658 186.352 55.5336 187.078 55.4081 187.836C55.2775 188.589 54.8757 189.302 54.2028 189.975L42.6922 201.486Z" fill="#3D3D3D"/>
<path d="M27.3843 160.343L22.9883 161.979L26.8278 164.678L25.5656 166.308L21.9596 163.282L21.5499 167.971L19.505 167.712L20.3112 163.088L16.0457 165.039L15.263 163.15L19.6589 161.513L15.8195 158.814L17.0816 157.184L20.6876 160.211L21.0973 155.521L23.1423 155.781L22.336 160.404L26.6015 158.453L27.3843 160.343Z" fill="#3D3D3D"/>
<path d="M29.3835 121.836C29.3835 122.873 29.1882 123.814 28.7976 124.659C28.3999 125.504 27.8281 126.175 27.0824 126.672C26.3295 127.169 25.4205 127.418 24.3551 127.418C23.4176 127.418 22.6577 127.233 22.0753 126.864C21.4858 126.495 21.0241 126.001 20.6903 125.383C20.3565 124.765 20.108 124.084 19.9446 123.338C19.7741 122.585 19.6392 121.829 19.5398 121.069C19.4119 120.074 19.3161 119.268 19.2521 118.65C19.1811 118.025 19.0639 117.571 18.9006 117.287C18.7372 116.995 18.4531 116.85 18.0483 116.85H17.9631C16.9119 116.85 16.0952 117.138 15.5128 117.713C14.9304 118.281 14.6392 119.144 14.6392 120.302C14.6392 121.502 14.902 122.443 15.4276 123.125C15.9531 123.807 16.5142 124.286 17.1108 124.563L16.2585 126.949C15.2642 126.523 14.4901 125.955 13.9361 125.245C13.375 124.527 12.9844 123.746 12.7642 122.901C12.5369 122.049 12.4233 121.211 12.4233 120.387C12.4233 119.861 12.4872 119.258 12.6151 118.576C12.7358 117.887 12.9879 117.223 13.3714 116.584C13.755 115.937 14.3338 115.401 15.108 114.975C15.8821 114.549 16.919 114.336 18.2188 114.336L29 114.336V116.85H26.7841V116.978C27.1392 117.148 27.5192 117.432 27.924 117.83C28.3288 118.228 28.6733 118.757 28.9574 119.417C29.2415 120.078 29.3835 120.884 29.3835 121.836ZM27.125 121.452C27.125 120.458 26.9297 119.62 26.5391 118.938C26.1484 118.249 25.6442 117.731 25.0263 117.383C24.4084 117.027 23.7585 116.85 23.0767 116.85H20.7756C20.9034 116.956 21.0206 117.191 21.1271 117.553C21.2266 117.908 21.3153 118.32 21.3935 118.789C21.4645 119.25 21.5284 119.701 21.5852 120.142C21.6349 120.575 21.6776 120.927 21.7131 121.196C21.7983 121.85 21.9368 122.461 22.1286 123.029C22.3132 123.59 22.5937 124.044 22.9702 124.392C23.3395 124.733 23.8437 124.904 24.483 124.904C25.3565 124.904 26.017 124.581 26.4645 123.934C26.9048 123.281 27.125 122.454 27.125 121.452Z" fill="#3D3D3D"/>
<path d="M29.5632 109.107L8.16423 104.851L8.65473 102.385L16.5539 103.956L16.5955 103.747C16.3529 103.511 16.0475 103.189 15.6794 102.783C15.3057 102.368 15.0084 101.824 14.7876 101.15C14.5613 100.468 14.552 99.6042 14.7599 98.5594C15.0287 97.208 15.6034 96.084 16.4842 95.1875C17.3649 94.291 18.4828 93.6769 19.8377 93.3454C21.1926 93.0139 22.7129 93.0158 24.3986 93.3511C26.0983 93.6892 27.5141 94.2713 28.6459 95.0975C29.7709 95.9223 30.5728 96.9145 31.0518 98.0743C31.5238 99.2327 31.6268 100.481 31.3607 101.818C31.1557 102.849 30.8208 103.64 30.3562 104.193C29.8845 104.743 29.3961 105.142 28.8907 105.389C28.3784 105.635 27.9579 105.819 27.6294 105.942L27.5712 106.235L30.0371 106.725L29.5632 109.107ZM22.0208 105.087C23.2328 105.328 24.3374 105.363 25.3345 105.192C26.3247 105.02 27.1488 104.644 27.8071 104.066C28.4583 103.486 28.8823 102.701 29.0791 101.712C29.2842 100.681 29.1836 99.7665 28.7774 98.9688C28.3657 98.1628 27.7312 97.4935 26.8741 96.9609C26.0113 96.42 25.0087 96.0359 23.8664 95.8087C22.7379 95.5842 21.6862 95.556 20.7114 95.7242C19.731 95.884 18.9068 96.2596 18.2389 96.8508C17.5653 97.4338 17.1246 98.2477 16.9168 99.2925C16.7173 100.296 16.8039 101.189 17.1766 101.973C17.5423 102.755 18.1433 103.411 18.9796 103.939C19.8089 104.466 20.8226 104.849 22.0208 105.087Z" fill="#3D3D3D"/>
<path d="M36.3175 85.9248C35.7522 87.2896 34.9314 88.3526 33.8551 89.1137C32.7815 89.8682 31.5411 90.2923 30.1339 90.3859C28.7295 90.473 27.2465 90.1931 25.6848 89.5463C24.11 88.894 22.8536 88.0391 21.9155 86.9817C20.9801 85.9178 20.3996 84.7395 20.174 83.4468C19.9511 82.1476 20.1224 80.8155 20.6877 79.4507C21.253 78.0859 22.0725 77.0262 23.1461 76.2716C24.2224 75.5105 25.466 75.0878 26.877 75.0035C28.2908 74.9125 29.785 75.1932 31.3598 75.8455C32.9215 76.4924 34.1667 77.3464 35.0955 78.4077C36.027 79.4623 36.6042 80.6393 36.8271 81.9385C37.0527 83.2312 36.8829 84.56 36.3175 85.9248ZM34.2309 85.0605C34.6604 84.0237 34.7479 83.0607 34.4937 82.1712C34.2394 81.2818 33.7458 80.4969 33.0128 79.8166C32.2799 79.1363 31.4082 78.5869 30.3977 78.1684C29.3872 77.7498 28.379 77.5205 27.3731 77.4806C26.3672 77.4406 25.4566 77.6438 24.6414 78.0903C23.8261 78.5367 23.2037 79.2783 22.7743 80.315C22.3449 81.3517 22.2606 82.3162 22.5214 83.2083C22.7822 84.1005 23.2824 84.8881 24.0219 85.5711C24.7614 86.2541 25.6364 86.8049 26.6469 87.2234C27.6574 87.642 28.6623 87.8699 29.6616 87.9071C30.661 87.9444 31.565 87.7384 32.3737 87.2893C33.1824 86.8402 33.8015 86.0972 34.2309 85.0605Z" fill="#3D3D3D"/>
<path d="M41.1075 62.9297L33.0644 57.5555L34.4612 55.465L48.0671 64.5561L46.6703 66.6466L44.3672 65.1077L44.2725 65.2495C44.7504 66.03 45.0065 66.9187 45.0409 67.9154C45.0694 68.9083 44.7404 69.9184 44.0538 70.946C43.4856 71.7963 42.7945 72.4279 41.9806 72.8407C41.1607 73.2496 40.2466 73.3905 39.2381 73.2633C38.2238 73.1323 37.1379 72.68 35.9805 71.9067L27.3351 66.13L28.7319 64.0395L37.2356 69.7215C38.2277 70.3844 39.2045 70.6356 40.1659 70.475C41.1313 70.3086 41.904 69.7914 42.484 68.9233C42.8312 68.4036 43.0515 67.7863 43.1449 67.0714C43.2421 66.3505 43.1385 65.6235 42.8339 64.8904C42.5333 64.1514 41.9578 63.4979 41.1075 62.9297Z" fill="#3D3D3D"/>
<path d="M47.535 41.2157L49.0416 42.7223L43.0452 48.7186L41.5386 47.212L47.535 41.2157ZM40.5141 42.6922L42.2919 40.9144L53.3204 51.9428C53.8226 52.445 54.2721 52.7489 54.6688 52.8543C55.0656 52.9497 55.4221 52.9246 55.7385 52.779C56.0549 52.6233 56.3437 52.4149 56.6048 52.1537C56.8007 51.9579 56.9513 51.7871 57.0568 51.6415C57.1572 51.4908 57.2376 51.3703 57.2979 51.2799L59.2565 52.5153C59.1811 52.6811 59.0581 52.8945 58.8873 53.1556C58.7216 53.4218 58.473 53.7206 58.1416 54.0521C57.6394 54.5543 57.0392 54.9385 56.3412 55.2046C55.6481 55.4658 54.9224 55.5336 54.1641 55.408C53.4108 55.2775 52.6977 54.8757 52.0247 54.2027L40.5141 42.6922Z" fill="#3D3D3D"/>
<path d="M81.6573 27.3843L80.021 22.9883L77.3217 26.8278L75.6919 25.5656L78.7185 21.9596L74.0285 21.5499L74.2885 19.505L78.912 20.3112L76.9607 16.0457L78.8505 15.263L80.4868 19.6589L83.1861 15.8195L84.8159 17.0816L81.7893 20.6876L86.4793 21.0973L86.2193 23.1423L81.5957 22.336L83.5471 26.6015L81.6573 27.3843Z" fill="#3D3D3D"/>
<path d="M120.164 29.3835C119.127 29.3835 118.186 29.1882 117.341 28.7976C116.496 28.3999 115.825 27.8281 115.328 27.0824C114.831 26.3295 114.582 25.4205 114.582 24.3551C114.582 23.4176 114.767 22.6577 115.136 22.0753C115.505 21.4858 115.999 21.0241 116.617 20.6903C117.235 20.3565 117.916 20.108 118.662 19.9446C119.415 19.7741 120.171 19.6392 120.931 19.5398C121.926 19.4119 122.732 19.3161 123.35 19.2521C123.975 19.1811 124.429 19.0639 124.713 18.9006C125.005 18.7372 125.15 18.4531 125.15 18.0483V17.9631C125.15 16.9119 124.862 16.0952 124.287 15.5128C123.719 14.9304 122.856 14.6392 121.698 14.6392C120.498 14.6392 119.557 14.902 118.875 15.4276C118.193 15.9531 117.714 16.5142 117.437 17.1108L115.051 16.2585C115.477 15.2642 116.045 14.4901 116.755 13.9361C117.473 13.375 118.254 12.9844 119.099 12.7642C119.951 12.5369 120.789 12.4233 121.613 12.4233C122.139 12.4233 122.742 12.4872 123.424 12.6151C124.113 12.7358 124.777 12.9879 125.416 13.3714C126.063 13.755 126.599 14.3338 127.025 15.108C127.451 15.8821 127.664 16.919 127.664 18.2188V29H125.15V26.7841H125.022C124.852 27.1392 124.568 27.5192 124.17 27.924C123.772 28.3288 123.243 28.6733 122.583 28.9574C121.922 29.2415 121.116 29.3835 120.164 29.3835ZM120.548 27.125C121.542 27.125 122.38 26.9297 123.062 26.5391C123.751 26.1484 124.269 25.6442 124.617 25.0263C124.973 24.4084 125.15 23.7585 125.15 23.0767V20.7756C125.044 20.9034 124.809 21.0206 124.447 21.1271C124.092 21.2266 123.68 21.3153 123.211 21.3935C122.75 21.4645 122.299 21.5284 121.858 21.5852C121.425 21.6349 121.073 21.6776 120.804 21.7131C120.15 21.7983 119.539 21.9368 118.971 22.1286C118.41 22.3132 117.956 22.5937 117.608 22.9702C117.267 23.3395 117.096 23.8437 117.096 24.483C117.096 25.3565 117.419 26.017 118.066 26.4645C118.719 26.9048 119.546 27.125 120.548 27.125Z" fill="#3D3D3D"/>
<path d="M132.893 29.5632L137.149 8.16423L139.615 8.65473L138.044 16.5539L138.253 16.5955C138.489 16.3529 138.811 16.0475 139.217 15.6794C139.632 15.3057 140.176 15.0084 140.85 14.7876C141.532 14.5613 142.396 14.552 143.441 14.7599C144.792 15.0287 145.916 15.6034 146.813 16.4842C147.709 17.3649 148.323 18.4828 148.655 19.8377C148.986 21.1926 148.984 22.7129 148.649 24.3986C148.311 26.0983 147.729 27.5141 146.903 28.6459C146.078 29.7709 145.085 30.5728 143.926 31.0518C142.767 31.5238 141.519 31.6268 140.182 31.3607C139.151 31.1557 138.36 30.8208 137.807 30.3562C137.257 29.8845 136.858 29.3961 136.611 28.8907C136.365 28.3784 136.181 27.9579 136.058 27.6294L135.765 27.5712L135.275 30.0371L132.893 29.5632ZM136.913 22.0208C136.672 23.2328 136.637 24.3374 136.808 25.3345C136.98 26.3247 137.356 27.1488 137.934 27.8071C138.514 28.4583 139.299 28.8823 140.288 29.0791C141.319 29.2842 142.233 29.1836 143.031 28.7774C143.837 28.3657 144.507 27.7312 145.039 26.8741C145.58 26.0113 145.964 25.0087 146.191 23.8664C146.416 22.7379 146.444 21.6862 146.276 20.7114C146.116 19.731 145.74 18.9068 145.149 18.2389C144.566 17.5653 143.752 17.1246 142.707 16.9168C141.704 16.7173 140.811 16.8039 140.027 17.1766C139.245 17.5423 138.589 18.1433 138.061 18.9796C137.534 19.8089 137.151 20.8226 136.913 22.0208Z" fill="#3D3D3D"/>
<path d="M156.075 36.3175C154.71 35.7522 153.647 34.9314 152.886 33.8551C152.132 32.7815 151.708 31.5411 151.614 30.1339C151.527 28.7295 151.807 27.2465 152.454 25.6848C153.106 24.11 153.961 22.8536 155.018 21.9155C156.082 20.9801 157.26 20.3996 158.553 20.174C159.852 19.9511 161.184 20.1224 162.549 20.6877C163.914 21.253 164.974 22.0725 165.728 23.1461C166.489 24.2224 166.912 25.466 166.997 26.877C167.087 28.2908 166.807 29.785 166.154 31.3598C165.508 32.9215 164.654 34.1667 163.592 35.0955C162.538 36.027 161.361 36.6042 160.061 36.8271C158.769 37.0527 157.44 36.8829 156.075 36.3175ZM156.939 34.2309C157.976 34.6604 158.939 34.7479 159.829 34.4937C160.718 34.2394 161.503 33.7458 162.183 33.0128C162.864 32.2799 163.413 31.4082 163.832 30.3977C164.25 29.3872 164.479 28.379 164.519 27.3731C164.559 26.3672 164.356 25.4566 163.91 24.6414C163.463 23.8261 162.722 23.2037 161.685 22.7743C160.648 22.3449 159.684 22.2606 158.792 22.5214C157.899 22.7822 157.112 23.2824 156.429 24.0219C155.746 24.7614 155.195 25.6364 154.777 26.6469C154.358 27.6574 154.13 28.6623 154.093 29.6616C154.056 30.661 154.262 31.565 154.711 32.3737C155.16 33.1824 155.903 33.8015 156.939 34.2309Z" fill="#3D3D3D"/>
<path d="M179.07 41.1075L184.445 33.0644L186.535 34.4612L177.444 48.0671L175.353 46.6703L176.892 44.3672L176.751 44.2725C175.97 44.7504 175.081 45.0065 174.085 45.0409C173.092 45.0694 172.082 44.7404 171.054 44.0538C170.204 43.4856 169.572 42.7945 169.159 41.9806C168.75 41.1607 168.61 40.2466 168.737 39.2381C168.868 38.2238 169.32 37.1379 170.093 35.9805L175.87 27.3351L177.96 28.7319L172.279 37.2356C171.616 38.2277 171.364 39.2045 171.525 40.1659C171.691 41.1313 172.209 41.904 173.077 42.484C173.596 42.8312 174.214 43.0515 174.929 43.1449C175.649 43.2421 176.376 43.1385 177.11 42.8339C177.849 42.5333 178.502 41.9578 179.07 41.1075Z" fill="#3D3D3D"/>
<path d="M200.784 47.535L199.278 49.0416L193.281 43.0452L194.788 41.5386L200.784 47.535ZM199.308 40.5141L201.086 42.2919L190.057 53.3204C189.555 53.8226 189.251 54.2721 189.146 54.6688C189.05 55.0656 189.075 55.4221 189.221 55.7385C189.377 56.0549 189.585 56.3437 189.846 56.6048C190.042 56.8007 190.213 56.9513 190.358 57.0568C190.509 57.1572 190.63 57.2376 190.72 57.2979L189.485 59.2565C189.319 59.1811 189.105 59.0581 188.844 58.8873C188.578 58.7216 188.279 58.473 187.948 58.1416C187.446 57.6394 187.061 57.0392 186.795 56.3412C186.534 55.6481 186.466 54.9224 186.592 54.1641C186.723 53.4108 187.124 52.6977 187.797 52.0247L199.308 40.5141Z" fill="#3D3D3D"/>
<path d="M214.616 81.6573L219.012 80.021L215.172 77.3217L216.434 75.6919L220.04 78.7185L220.45 74.0285L222.495 74.2885L221.689 78.912L225.954 76.9607L226.737 78.8505L222.341 80.4868L226.181 83.1861L224.918 84.8159L221.312 81.7893L220.903 86.4793L218.858 86.2193L219.664 81.5957L215.399 83.5471L214.616 81.6573Z" fill="#3D3D3D"/>
<path d="M212.616 120.164C212.616 119.127 212.812 118.186 213.202 117.341C213.6 116.496 214.172 115.825 214.918 115.328C215.67 114.831 216.58 114.582 217.645 114.582C218.582 114.582 219.342 114.767 219.925 115.136C220.514 115.505 220.976 115.999 221.31 116.617C221.643 117.235 221.892 117.916 222.055 118.662C222.226 119.415 222.361 120.171 222.46 120.931C222.588 121.926 222.684 122.732 222.748 123.35C222.819 123.975 222.936 124.429 223.099 124.713C223.263 125.005 223.547 125.15 223.952 125.15H224.037C225.088 125.15 225.905 124.862 226.487 124.287C227.07 123.719 227.361 122.856 227.361 121.698C227.361 120.498 227.098 119.557 226.572 118.875C226.047 118.193 225.486 117.714 224.889 117.437L225.741 115.051C226.736 115.477 227.51 116.045 228.064 116.755C228.625 117.473 229.016 118.254 229.236 119.099C229.463 119.951 229.577 120.789 229.577 121.613C229.577 122.139 229.513 122.742 229.385 123.424C229.264 124.113 229.012 124.777 228.629 125.416C228.245 126.063 227.666 126.599 226.892 127.025C226.118 127.451 225.081 127.664 223.781 127.664H213V125.15H215.216V125.022C214.861 124.852 214.481 124.568 214.076 124.17C213.671 123.772 213.327 123.243 213.043 122.583C212.759 121.922 212.616 121.116 212.616 120.164ZM214.875 120.548C214.875 121.542 215.07 122.38 215.461 123.062C215.852 123.751 216.356 124.269 216.974 124.617C217.592 124.973 218.241 125.15 218.923 125.15H221.224C221.097 125.044 220.979 124.809 220.873 124.447C220.773 124.092 220.685 123.68 220.607 123.211C220.536 122.75 220.472 122.299 220.415 121.858C220.365 121.425 220.322 121.073 220.287 120.804C220.202 120.15 220.063 119.539 219.871 118.971C219.687 118.41 219.406 117.956 219.03 117.608C218.661 117.267 218.156 117.096 217.517 117.096C216.643 117.096 215.983 117.419 215.536 118.066C215.095 118.719 214.875 119.546 214.875 120.548Z" fill="#3D3D3D"/>
<path d="M212.437 132.893L233.836 137.149L233.345 139.615L225.446 138.044L225.404 138.253C225.647 138.489 225.952 138.811 226.321 139.217C226.694 139.632 226.992 140.176 227.212 140.85C227.439 141.532 227.448 142.396 227.24 143.441C226.971 144.792 226.397 145.916 225.516 146.813C224.635 147.709 223.517 148.323 222.162 148.655C220.807 148.986 219.287 148.984 217.601 148.649C215.902 148.311 214.486 147.729 213.354 146.903C212.229 146.078 211.427 145.085 210.948 143.926C210.476 142.767 210.373 141.519 210.639 140.182C210.844 139.151 211.179 138.36 211.644 137.807C212.115 137.257 212.604 136.858 213.109 136.611C213.622 136.365 214.042 136.181 214.371 136.058L214.429 135.765L211.963 135.275L212.437 132.893ZM219.979 136.913C218.767 136.672 217.663 136.637 216.665 136.808C215.675 136.98 214.851 137.356 214.193 137.934C213.542 138.514 213.118 139.299 212.921 140.288C212.716 141.319 212.816 142.233 213.223 143.031C213.634 143.837 214.269 144.507 215.126 145.039C215.989 145.58 216.991 145.964 218.134 146.191C219.262 146.416 220.314 146.444 221.289 146.276C222.269 146.116 223.093 145.74 223.761 145.149C224.435 144.566 224.875 143.752 225.083 142.707C225.283 141.704 225.196 140.811 224.823 140.027C224.458 139.245 223.857 138.589 223.02 138.061C222.191 137.534 221.177 137.151 219.979 136.913Z" fill="#3D3D3D"/>
<path d="M205.682 156.075C206.248 154.71 207.069 153.647 208.145 152.886C209.219 152.132 210.459 151.708 211.866 151.614C213.27 151.527 214.754 151.807 216.315 152.454C217.89 153.106 219.146 153.961 220.085 155.018C221.02 156.082 221.6 157.26 221.826 158.553C222.049 159.852 221.878 161.184 221.312 162.549C220.747 163.914 219.928 164.974 218.854 165.728C217.778 166.489 216.534 166.912 215.123 166.996C213.709 167.087 212.215 166.807 210.64 166.154C209.079 165.508 207.833 164.653 206.904 163.592C205.973 162.538 205.396 161.361 205.173 160.061C204.947 158.769 205.117 157.44 205.682 156.075ZM207.769 156.939C207.34 157.976 207.252 158.939 207.506 159.829C207.761 160.718 208.254 161.503 208.987 162.183C209.72 162.864 210.592 163.413 211.602 163.832C212.613 164.25 213.621 164.479 214.627 164.519C215.633 164.559 216.543 164.356 217.359 163.91C218.174 163.463 218.796 162.722 219.226 161.685C219.655 160.648 219.739 159.684 219.479 158.792C219.218 157.899 218.718 157.112 217.978 156.429C217.239 155.746 216.364 155.195 215.353 154.777C214.343 154.358 213.338 154.13 212.338 154.093C211.339 154.056 210.435 154.262 209.626 154.711C208.818 155.16 208.199 155.903 207.769 156.939Z" fill="#3D3D3D"/>
<path d="M200.893 179.07L208.936 184.445L207.539 186.535L193.933 177.444L195.33 175.353L197.633 176.892L197.727 176.751C197.25 175.97 196.994 175.081 196.959 174.085C196.931 173.092 197.26 172.082 197.946 171.054C198.514 170.204 199.205 169.572 200.019 169.159C200.839 168.75 201.753 168.61 202.762 168.737C203.776 168.868 204.862 169.32 206.02 170.093L214.665 175.87L213.268 177.96L204.764 172.279C203.772 171.616 202.796 171.364 201.834 171.525C200.869 171.691 200.096 172.209 199.516 173.077C199.169 173.596 198.948 174.214 198.855 174.929C198.758 175.649 198.862 176.376 199.166 177.11C199.467 177.849 200.042 178.502 200.893 179.07Z" fill="#3D3D3D"/>
<path d="M194.465 200.784L192.958 199.278L198.955 193.281L200.461 194.788L194.465 200.784ZM201.486 199.308L199.708 201.086L188.68 190.057C188.177 189.555 187.728 189.251 187.331 189.146C186.934 189.05 186.578 189.075 186.261 189.221C185.945 189.377 185.656 189.585 185.395 189.846C185.199 190.042 185.049 190.213 184.943 190.359C184.843 190.509 184.762 190.63 184.702 190.72L182.744 189.485C182.819 189.319 182.942 189.106 183.113 188.844C183.278 188.578 183.527 188.279 183.858 187.948C184.361 187.446 184.961 187.062 185.659 186.795C186.352 186.534 187.078 186.466 187.836 186.592C188.589 186.723 189.302 187.124 189.975 187.797L201.486 199.308Z" fill="#3D3D3D"/>
<path d="M160.343 214.616L161.979 219.012L164.678 215.172L166.308 216.434L163.282 220.04L167.971 220.45L167.712 222.495L163.088 221.689L165.039 225.954L163.15 226.737L161.513 222.341L158.814 226.181L157.184 224.918L160.211 221.312L155.521 220.903L155.781 218.858L160.404 219.664L158.453 215.399L160.343 214.616Z" fill="#3D3D3D"/>
</svg>
